<?xml version="1.0" encoding="UTF-8"?>
<svg version="1.1" xmlns="http://www.w3.org/2000/svg" width="400" height="400">
<path d="M0 0 C132 0 264 0 400 0 C400 132 400 264 400 400 C268 400 136 400 0 400 C0 268 0 136 0 0 Z " fill="#EC6522" transform="translate(0,0)"/>
<path d="M0 0 C132 0 264 0 400 0 C400 132 400 264 400 400 C268 400 136 400 0 400 C0 268 0 136 0 0 Z M86.1171875 51.3515625 C84.52512064 52.59114223 82.8990749 53.78727122 81.2578125 54.9609375 C64.71713347 67.04677031 51.21132094 81.91163344 40 99 C39.401875 99.90878906 38.80375 100.81757812 38.1875 101.75390625 C36.70771031 104.13041632 35.34899822 106.54694362 34 109 C33.32178942 110.15505059 32.64338699 111.30998855 31.96484375 112.46484375 C9.18560858 152.1995288 4.52382623 203.70638306 15.89868164 247.86206055 C29.67139878 297.88364329 62.11771556 337.38188275 106.96289062 362.87695312 C124.31470459 372.44291001 142.61671528 378.21707915 162 382 C163.61841797 382.32291016 163.61841797 382.32291016 165.26953125 382.65234375 C216.05284393 391.96601689 270.54285563 380.02309101 313 351 C317.81641735 347.51553867 322.43054906 343.79998381 327 340 C327.56783203 339.55108398 328.13566406 339.10216797 328.72070312 338.63964844 C330.18336932 337.47037084 331.59647262 336.23964245 333 335 C333 334.34 333 333.68 333 333 C333.5465625 332.78859375 334.093125 332.5771875 334.65625 332.359375 C337.83994692 330.51283079 340.07151309 327.96302352 342.5 325.25 C343.20962891 324.48042969 343.20962891 324.48042969 343.93359375 323.6953125 C346.22428546 321.16984075 348.19477202 318.70784196 350.09375 315.859375 C352 313 352 313 353.921875 311.140625 C356.94271264 308.0289351 359.01851102 304.45285625 361.25 300.75 C361.73235107 299.95223145 362.21470215 299.15446289 362.71166992 298.33251953 C376.46032889 275.30482701 385.44507091 250.61213272 389 224 C389.13277344 223.02417969 389.26554687 222.04835937 389.40234375 221.04296875 C392.30446623 193.89023373 389.96835036 163.59530223 380 138 C379.75910645 137.37061523 379.51821289 136.74123047 379.27001953 136.09277344 C361.12760703 89.00915789 326.79317504 53.03856232 281 32 C276.04002525 29.88261483 271.04517353 27.90475535 266 26 C264.99066406 25.61714844 263.98132813 25.23429687 262.94140625 24.83984375 C255.53818491 22.19798864 248.0227169 20.62094457 240.27832031 19.37207031 C238.73408327 19.11988244 237.19174637 18.85582503 235.65136719 18.58105469 C184.87858561 9.58051758 127.36065725 19.00709867 86.1171875 51.3515625 Z " fill="#FEFEFD" transform="translate(0,0)"/>
<path d="M0 0 C1.90729141 1.83099975 3.73667031 3.67505557 5.40234375 5.73046875 C25.20709691 29.99008082 59.23004358 38.15761731 87.64379883 47.53588867 C90.05251083 48.33309495 92.45885438 49.13750773 94.86230469 49.95043945 C96.74947555 50.58169899 98.64430052 51.19152715 100.55175781 51.75854492 C104.01356758 52.85272691 105.76919779 53.68749381 107.953125 56.64453125 C112.65862544 68.13899167 115.75812233 78.58122333 117 91 C106.44 91 95.88 91 85 91 C83.02 87.37 81.04 83.74 79 80 C70.26659665 71.00973184 60.06295789 65.14483624 47.30859375 64.734375 C45.68489591 64.72914149 44.06113181 64.73445045 42.4375 64.75 C41.62603516 64.74226563 40.81457031 64.73453125 39.97851562 64.7265625 C34.95677651 64.74277473 30.72070168 65.23669727 26 67 C24.86649466 69.01669827 24.86649466 69.01669827 24 71 C22.33333333 71.33333333 20.66666667 71.66666667 19 72 C17.40869252 73.68250878 17.40869252 73.68250878 17 76 C17.78702351 78.7193293 17.78702351 78.7193293 19 81 C19.99 80.34 20.98 79.68 22 79 C22.99 79 23.98 79 25 79 C25 79.66 25 80.32 25 81 C27.11785113 82.11785113 27.11785113 82.11785113 30 83 C31.175625 82.525625 32.35125 82.05125 33.5625 81.5625 C40.6780018 78.7215121 47.82973436 79.75287734 55.1875 81.171875 C57.62363465 82.28493652 57.90304036 83.60987656 59 86 C60.57739682 87.45816966 60.57739682 87.45816966 62.375 88.75 C67.10596137 92.62347462 69.10079446 97.30238338 71 103 C71.07029121 105.57265818 71.09370832 108.11641431 71.0625 110.6875 C71.05798828 111.38939453 71.05347656 112.09128906 71.04882812 112.81445312 C71.03706927 114.54300538 71.01913454 116.27151365 71 118 C71.66 118.33 72.32 118.66 73 119 C72.34 121.31 71.68 123.62 71 126 C70.21625 125.938125 69.4325 125.87625 68.625 125.8125 C67.75875 125.874375 66.8925 125.93625 66 126 C65.34 126.99 64.68 127.98 64 129 C63.34 129 62.68 129 62 129 C62 130.32 62 131.64 62 133 C62.66 132.67 63.32 132.34 64 132 C64.66 132.33 65.32 132.66 66 133 C65 135 64 137 63 139 C66.465 138.01 66.465 138.01 70 137 C70.33 137.99 70.66 138.98 71 140 C71.66 139.67 72.32 139.34 73 139 C72.67 138.01 72.34 137.02 72 136 C72.66 135.67 73.32 135.34 74 135 C74.99 135.33 75.98 135.66 77 136 C76.67 135.01 76.34 134.02 76 133 C76.66 133 77.32 133 78 133 C78 132.34 78 131.68 78 131 C79.32 131.33 80.64 131.66 82 132 C83.83788481 127.64575889 85.23790064 123.19902458 86.625 118.6875 C87.800625 114.8821875 87.800625 114.8821875 89 111 C98.57 111 108.14 111 118 111 C118 126.78461538 118 126.78461538 116.6875 132.6875 C116.41035156 133.93402344 116.13320313 135.18054688 115.84765625 136.46484375 C115.42806641 138.21474609 115.42806641 138.21474609 115 140 C114.77183594 140.99128906 114.54367187 141.98257813 114.30859375 143.00390625 C112.63286175 149.7355611 110.13638681 155.82155381 107 162 C106.69852051 162.59973633 106.39704102 163.19947266 106.08642578 163.81738281 C100.66061174 174.4653754 94.14631893 183.28552473 86 192 C85.1646875 192.91652344 84.329375 193.83304688 83.46875 194.77734375 C64.78760032 214.4592693 39.25397679 224.67937699 13 229 C11.92492187 229.18820312 10.84984375 229.37640625 9.7421875 229.5703125 C-17.88843753 232.74293124 -44.82704267 227.63485458 -69 214 C-70.12921875 213.37222656 -71.2584375 212.74445313 -72.421875 212.09765625 C-96.24825767 198.16093241 -113.37828125 176.77670331 -123 151 C-123.28230469 150.35675781 -123.56460938 149.71351563 -123.85546875 149.05078125 C-129.02043063 136.9642461 -129.34566489 123.90482249 -129 111 C-119.43 111 -109.86 111 -100 111 C-99.01 114.96 -98.02 118.92 -97 123 C-95.61818492 126.38501405 -95.61818492 126.38501405 -94 129.0625 C-93.505 129.94035156 -93.01 130.81820312 -92.5 131.72265625 C-90.37841602 134.94370693 -89.1019991 136.71809325 -85.3125 137.6875 C-84.1678125 137.8421875 -84.1678125 137.8421875 -83 138 C-83 137.34 -83 136.68 -83 136 C-82.34 135.67 -81.68 135.34 -81 135 C-80.690625 134.195625 -80.38125 133.39125 -80.0625 132.5625 C-79 130 -79 130 -76 128 C-76.54407449 124.08266365 -77.64607385 122.10718251 -80 119 C-82.81212254 112.93173557 -83.19742608 105.76737355 -81.171875 99.39453125 C-79.69741308 96.02197468 -78.04431883 93.06647825 -76 90 C-75.34 90 -74.68 90 -74 90 C-74 89.34 -74 88.68 -74 88 C-73.34 88 -72.68 88 -72 88 C-72.020625 87.05125 -72.04125 86.1025 -72.0625 85.125 C-72 82 -72 82 -71 80 C-74.465 80.495 -74.465 80.495 -78 81 C-78.33 80.01 -78.66 79.02 -79 78 C-82.65536248 76.95561072 -84.47385457 76.76981137 -88 78.3125 C-90.98344143 80.43943533 -91.78632642 82.81380353 -93.1953125 86.12890625 C-94.77441406 88.82397461 -94.77441406 88.82397461 -97 91 C-102.31594163 92.27767914 -107.47117811 91.9460791 -112.875 91.625 C-114.34099452 91.57479471 -115.80715369 91.52917493 -117.2734375 91.48828125 C-120.85239917 91.37850666 -124.42515117 91.20625348 -128 91 C-128.3168576 82.87033938 -126.35403507 76.47438055 -123.63964844 68.88867188 C-122.9109965 66.82785904 -122.9109965 66.82785904 -122.2578125 63.953125 C-121.26122138 60.82098149 -120.411252 59.26300142 -118 57 C-112.67998753 54.41377931 -106.767534 53.24929501 -101.06005859 51.81884766 C-95.52241338 50.33701727 -90.11408884 48.46620549 -84.6875 46.625 C-83.54104004 46.23803955 -82.39458008 45.8510791 -81.21337891 45.45239258 C-78.91367347 44.67562262 -76.61451294 43.89723738 -74.31591797 43.1171875 C-71.20727959 42.06983592 -68.09162817 41.04732958 -64.97265625 40.03125 C-42.40754996 32.58331502 -14.83405251 22.75107876 -1 2 C-0.67 1.34 -0.34 0.68 0 0 Z " fill="#EA6726" transform="translate(206,129)"/>
<path d="M0 0 C9.57 0 19.14 0 29 0 C29.99 3.96 30.98 7.92 32 12 C36.56970616 22.91865365 43.16330985 31.01168231 54 36 C60.81247512 38.54955629 67.1190879 39.55238926 74.375 39.5 C75.29112061 39.49500488 76.20724121 39.49000977 77.15112305 39.48486328 C89.13841686 39.17725199 98.44095074 34.47823962 106.90234375 26.12109375 C113.3957445 19.10602444 116.25192472 12.32306818 118 3 C121.3 3 124.6 3 128 3 C128.3403125 4.03898438 128.680625 5.07796875 129.03125 6.1484375 C133.33674226 18.7546767 138.79136991 28.57440522 151 35 C151.763125 35.4125 152.52625 35.825 153.3125 36.25 C163.31843605 40.75267122 177.07925072 40.66603032 187.625 37.875 C198.18644319 33.85867653 206.78808718 27.28467704 212.25 17.25 C214.55773682 11.64549629 216.21753621 5.79300733 218 0 C227.57 0 237.14 0 247 0 C247 15.78461538 247 15.78461538 245.6875 21.6875 C245.41035156 22.93402344 245.13320313 24.18054688 244.84765625 25.46484375 C244.56792969 26.63144531 244.28820312 27.79804688 244 29 C243.77183594 29.99128906 243.54367187 30.98257812 243.30859375 32.00390625 C241.63286175 38.7355611 239.13638681 44.82155381 236 51 C235.54778076 51.89960449 235.54778076 51.89960449 235.08642578 52.81738281 C229.66061174 63.4653754 223.14631893 72.28552473 215 81 C214.1646875 81.91652344 213.329375 82.83304687 212.46875 83.77734375 C193.78760032 103.4592693 168.25397679 113.67937699 142 118 C140.92492187 118.18820312 139.84984375 118.37640625 138.7421875 118.5703125 C111.11156247 121.74293124 84.17295733 116.63485458 60 103 C58.87078125 102.37222656 57.7415625 101.74445313 56.578125 101.09765625 C32.75174233 87.16093241 15.62171875 65.77670331 6 40 C5.71769531 39.35675781 5.43539062 38.71351563 5.14453125 38.05078125 C-0.02043063 25.9642461 -0.34566489 12.90482249 0 0 Z " fill="#FEFDFC" transform="translate(77,240)"/>
<path d="M0 0 C1.90729141 1.83099975 3.73667031 3.67505557 5.40234375 5.73046875 C25.20709691 29.99008082 59.23004358 38.15761731 87.64379883 47.53588867 C90.05251083 48.33309495 92.45885438 49.13750773 94.86230469 49.95043945 C96.74947555 50.58169899 98.64430052 51.19152715 100.55175781 51.75854492 C104.01356758 52.85272691 105.76919779 53.68749381 107.953125 56.64453125 C112.65862544 68.13899167 115.75812233 78.58122333 117 91 C106.44 91 95.88 91 85 91 C83.02 87.37 81.04 83.74 79 80 C69.55438433 70.27657211 58.79021194 64.92098257 45.15014648 64.56860352 C31.54737881 64.534012 21.59437086 68.18246283 11 77 C10.67 77.66 10.34 78.32 10 79 C9.34 79 8.68 79 8 79 C7.62875 79.99 7.62875 79.99 7.25 81 C5.94482249 84.13242603 4.45646726 87.11839936 2.90234375 90.1328125 C1.87997124 92.14664322 1.87997124 92.14664322 1 95 C-3.29 95 -7.58 95 -12 95 C-12.4125 94.0821875 -12.825 93.164375 -13.25 92.21875 C-19.23969839 79.31028131 -26.50638458 71.5107019 -40.0703125 66.1875 C-51.36464205 62.99851283 -65.61725999 63.57462834 -76 69 C-78.20478911 70.28219202 -80.34252386 71.59816616 -82.44140625 73.046875 C-84 74 -84 74 -86 74 C-86.226875 74.53625 -86.45375 75.0725 -86.6875 75.625 C-88.05077141 78.09187207 -89.69336989 80.06270687 -91.5859375 82.14453125 C-93.68306958 84.89629296 -95.28346284 87.99605997 -97 91 C-107.23 91 -117.46 91 -128 91 C-128 81.98866213 -128 81.98866213 -127.08203125 79.0703125 C-126.78413696 78.10230713 -126.78413696 78.10230713 -126.48022461 77.11474609 C-125.55712425 74.36400827 -124.61720071 71.62056962 -123.63964844 68.88867188 C-122.9109965 66.82785904 -122.9109965 66.82785904 -122.2578125 63.953125 C-121.26122138 60.82098149 -120.411252 59.26300142 -118 57 C-112.67998753 54.41377931 -106.767534 53.24929501 -101.06005859 51.81884766 C-95.52241338 50.33701727 -90.11408884 48.46620549 -84.6875 46.625 C-83.54104004 46.23803955 -82.39458008 45.8510791 -81.21337891 45.45239258 C-78.91367347 44.67562262 -76.61451294 43.89723738 -74.31591797 43.1171875 C-71.20727959 42.06983592 -68.09162817 41.04732958 -64.97265625 40.03125 C-42.40754996 32.58331502 -14.83405251 22.75107876 -1 2 C-0.67 1.34 -0.34 0.68 0 0 Z " fill="#FDFDFB" transform="translate(206,129)"/>
<path d="M0 0 C6.193497 2.92242822 10.01711529 7.40725447 13.375 13.3125 C15.83133313 20.21362643 16.22614183 27.42805152 13.5859375 34.39453125 C10.14744099 40.81026254 4.20835614 46.62993854 -2.625 49.3125 C-11.82621031 50.25250577 -20.86618758 50.83963184 -28.640625 45.15625 C-35.20817574 39.05411624 -38.59836339 33.03682369 -39 24 C-38.88673494 17.08139271 -36.40342745 11.98014118 -32.625 6.3125 C-31.965 6.3125 -31.305 6.3125 -30.625 6.3125 C-30.625 5.6525 -30.625 4.9925 -30.625 4.3125 C-22.05718795 -3.4690893 -10.55377077 -3.82771089 0 0 Z " fill="#FDFCF9" transform="translate(162.625,212.6875)"/>
<path d="M0 0 C5.15763392 3.88691252 9.23055138 8.38897596 11.15625 14.625 C12.08277295 24.24575574 11.83175975 31.91948934 5.578125 39.55078125 C0.92834301 44.60899004 -3.71859502 47.24271804 -10.67578125 48.09375 C-20.07792848 48.1675647 -27.36165433 47.44082818 -34.67578125 41.015625 C-41.0170867 34.28859537 -42.54585711 26.9805396 -42.32421875 17.8828125 C-41.35615905 11.3188955 -37.76722248 6.10299252 -32.90625 1.6875 C-23.00668603 -4.97955328 -10.6350886 -6.23925198 0 0 Z " fill="#FDFDFB" transform="translate(264.84375,214.375)"/>
<path d="M0 0 C4.46839215 -0.21278058 7.82262526 0.40861915 12 2 C12 1.34 12 0.68 12 0 C13.32 0.33 14.64 0.66 16 1 C16 2.32 16 3.64 16 5 C21.94 5.99 21.94 5.99 28 7 C28 7.66 28 8.32 28 9 C28.62648437 8.98839844 29.25296875 8.97679687 29.8984375 8.96484375 C30.71570313 8.95582031 31.53296875 8.94679688 32.375 8.9375 C33.18710938 8.92589844 33.99921875 8.91429687 34.8359375 8.90234375 C37 9 37 9 39 10 C41.69655446 10.15676775 44.37129977 10.25836315 47.0703125 10.31640625 C47.86654022 10.33718735 48.66276794 10.35796844 49.48312378 10.37937927 C52.03032685 10.44484149 54.57763425 10.50374415 57.125 10.5625 C58.85027127 10.6056884 60.57553193 10.64930279 62.30078125 10.69335938 C66.53374685 10.80051945 70.76681753 10.90179623 75 11 C75 11.33 75 11.66 75 12 C49.71506853 16.43906803 23.05782844 11.8210893 0 1 C0 0.67 0 0.34 0 0 Z " fill="#FCDAC2" transform="translate(144,346)"/>
<path d="M0 0 C0 0.33 0 0.66 0 1 C2.31 1.33 4.62 1.66 7 2 C7 2.66 7 3.32 7 4 C8.32 4.33 9.64 4.66 11 5 C1.43 5 -8.14 5 -18 5 C-18.33 7.64 -18.66 10.28 -19 13 C-20.56824343 17.71885862 -22.71852959 22.22630903 -26 26 C-26.9765625 19.9453125 -26.9765625 19.9453125 -27 18 C-26.34 17.34 -25.68 16.68 -25 16 C-24.01 16 -23.02 16 -22 16 C-21.90525391 14.64455078 -21.90525391 14.64455078 -21.80859375 13.26171875 C-20.81253319 3.66808285 -20.81253319 3.66808285 -17.1875 0.6875 C-11.67701966 -0.74288 -5.63842813 -0.22892866 0 0 Z " fill="#E3783F" transform="translate(313,235)"/>
<path d="M0 0 C1.65 0 3.3 0 5 0 C1.89625358 3.36113027 -1.52435485 5.83011386 -5.375 8.25 C-5.99004395 8.63913574 -6.60508789 9.02827148 -7.23876953 9.42919922 C-9.15258932 10.63051467 -11.07392249 11.81844835 -13 13 C-13.58136719 13.35674805 -14.16273438 13.71349609 -14.76171875 14.08105469 C-23.83091305 19.58586885 -33.19138347 23.9868239 -43 28 C-43.6295459 28.25974609 -44.2590918 28.51949219 -44.90771484 28.78710938 C-55.18814267 33 -55.18814267 33 -60 33 C-60 32.34 -60 31.68 -60 31 C-59.41734375 30.84144531 -58.8346875 30.68289063 -58.234375 30.51953125 C-52.12190823 28.77997703 -46.37850964 26.55712486 -40.56640625 23.98828125 C-38 23 -38 23 -35 23 C-35 22.34 -35 21.68 -35 21 C-34.18595703 20.70996094 -34.18595703 20.70996094 -33.35546875 20.4140625 C-32.64003906 20.15367187 -31.92460937 19.89328125 -31.1875 19.625 C-30.47980469 19.36976563 -29.77210938 19.11453125 -29.04296875 18.8515625 C-26.75226641 17.9734231 -26.75226641 17.9734231 -24 16 C-23.01 16 -22.02 16 -21 16 C-21.66 14.35 -22.32 12.7 -23 11 C-20.39417629 10.06934867 -19.35801776 9.85082593 -16.75 10.9375 C-16.1725 11.288125 -15.595 11.63875 -15 12 C-15 11.34 -15 10.68 -15 10 C-12.36 9.34 -9.72 8.68 -7 8 C-7 7.01 -7 6.02 -7 5 C-5.35 4.67 -3.7 4.34 -2 4 C-2 3.34 -2 2.68 -2 2 C-1.34 2 -0.68 2 0 2 C0 1.34 0 0.68 0 0 Z " fill="#DF6C2D" transform="translate(316,344)"/>
<path d="M0 0 C0 0.33 0 0.66 0 1 C-31.22560236 8.07467687 -62.24816596 10.71224243 -94 5 C-94 4.67 -94 4.34 -94 4 C-86.64336199 3.87316141 -86.64336199 3.87316141 -83.53320312 4.48632812 C-78.73128171 5.18445158 -73.97961575 5.23516848 -69.1328125 5.31640625 C-68.09808807 5.33718735 -67.06336365 5.35796844 -65.99728394 5.37937927 C-62.70658726 5.4445282 -59.41581383 5.50359809 -56.125 5.5625 C-53.88801304 5.6057182 -51.65103371 5.64933353 -49.4140625 5.69335938 C-43.94278842 5.80017389 -38.47143874 5.90200337 -33 6 C-33 5.34 -33 4.68 -33 4 C-30.03 4 -27.06 4 -24 4 C-24 3.34 -24 2.68 -24 2 C-22.41058594 1.90912109 -22.41058594 1.90912109 -20.7890625 1.81640625 C-19.40102779 1.73199873 -18.01300768 1.64735083 -16.625 1.5625 C-15.57699219 1.50352539 -15.57699219 1.50352539 -14.5078125 1.44335938 C-9.40931349 1.12470319 -5.18481765 -0.09601514 0 0 Z " fill="#D87D4B" transform="translate(256,377)"/>
<path d="M0 0 C11.33333333 0 22.66666667 0 34 0 C34 0.33 34 0.66 34 1 C24.43 1 14.86 1 5 1 C5 6.28 5 11.56 5 17 C4.34 17 3.68 17 3 17 C2.67 19.31 2.34 21.62 2 24 C1.34 23.67 0.68 23.34 0 23 C-0.19588601 19.3545658 -0.38030536 15.7086421 -0.5625 12.0625 C-0.61857422 11.02158203 -0.67464844 9.98066406 -0.73242188 8.90820312 C-0.78076172 7.91884766 -0.82910156 6.92949219 -0.87890625 5.91015625 C-0.9260376 4.99371338 -0.97316895 4.07727051 -1.02172852 3.13305664 C-1 1 -1 1 0 0 Z " fill="#E57A42" transform="translate(72,239)"/>
<path d="M0 0 C0.66 0 1.32 0 2 0 C4.61896089 2.82847776 5.4739075 5.21213403 6 9 C6.99 8.67 7.98 8.34 9 8 C8.97679687 9.10859375 8.95359375 10.2171875 8.9296875 11.359375 C8.91092423 12.82290992 8.89272463 14.28645214 8.875 15.75 C8.84986328 16.84441406 8.84986328 16.84441406 8.82421875 17.9609375 C8.7885256 21.88718422 8.99179227 24.61609091 11 28 C11 28.99 11 29.98 11 31 C12.32 31 13.64 31 15 31 C15 34.63 15 38.26 15 42 C7.12494711 30.18742067 2.18707686 13.87324874 0 0 Z " fill="#E16F37" transform="translate(15,241)"/>
<path d="M0 0 C0 0.33 0 0.66 0 1 C-3.95862931 0.86157705 -7.91681327 0.71300994 -11.875 0.5625 C-13.56689453 0.50352539 -13.56689453 0.50352539 -15.29296875 0.44335938 C-16.36933594 0.40146484 -17.44570312 0.35957031 -18.5546875 0.31640625 C-19.54968262 0.27974854 -20.54467773 0.24309082 -21.56982422 0.20532227 C-24 0 -24 0 -26 -1 C-28.70018702 -1.13060522 -31.36140077 -1.18969847 -34.0625 -1.1875 C-34.8872583 -1.18814453 -35.7120166 -1.18878906 -36.56176758 -1.18945312 C-44.86454214 -1.12211886 -53.10366327 -0.4606776 -61.36938477 0.28833008 C-66.9435146 0.78963126 -72.40302183 1.10724749 -78 1 C-78 0.67 -78 0.34 -78 0 C-51.98441084 -4.22603464 -25.98883489 -4.62513163 0 0 Z " fill="#DA7C4C" transform="translate(238,19)"/>
<path d="M0 0 C0.33 1.32 0.66 2.64 1 4 C1.62390625 4.08636719 2.2478125 4.17273438 2.890625 4.26171875 C5 5 5 5 6.046875 6.70703125 C6.27890625 7.40183594 6.5109375 8.09664062 6.75 8.8125 C6.99234375 9.49957031 7.2346875 10.18664062 7.484375 10.89453125 C8 13 8 13 8 17 C8.66 17 9.32 17 10 17 C11.19287411 20.87684087 12 23.91621923 12 28 C12.66 28 13.32 28 14 28 C14.495 35.92 14.495 35.92 15 44 C13.09281636 40.18563272 12.12236924 36.66870711 11.1875 32.5625 C9.63287617 26.00738243 7.60884072 19.91258976 5.05078125 13.671875 C4.17454352 11.44382071 3.50575046 9.3342329 3 7 C1.845 6.731875 0.69 6.46375 -0.5 6.1875 C-4.81623514 5.11614878 -8.86292967 3.62527763 -13 2 C-13 1.67 -13 1.34 -13 1 C-11.39602723 0.83147753 -9.7918131 0.66525114 -8.1875 0.5 C-7.29417969 0.4071875 -6.40085937 0.314375 -5.48046875 0.21875 C-3 0 -3 0 0 0 Z " fill="#D97547" transform="translate(309,176)"/>
<path d="M0 0 C1.32 0.33 2.64 0.66 4 1 C4 2.32 4 3.64 4 5 C4.99 5 5.98 5 7 5 C4.07572475 12.95172384 -0.67872003 20.34411792 -7 26 C-7.928125 26.928125 -8.85625 27.85625 -9.8125 28.8125 C-10.534375 29.534375 -11.25625 30.25625 -12 31 C-12 30.01 -12 29.02 -12 28 C-11.34 27.67 -10.68 27.34 -10 27 C-9.54625 26.195625 -9.0925 25.39125 -8.625 24.5625 C-7 22 -7 22 -4.875 21.125 C-4.25625 20.75375 -3.6375 20.3825 -3 20 C-2.35009942 17.36603047 -2.35009942 17.36603047 -2.21484375 15.3515625 C-1.92970577 12.23059769 -1.42640125 9.1577507 -0.9375 6.0625 C-0.67259766 4.34740234 -0.67259766 4.34740234 -0.40234375 2.59765625 C-0.26957031 1.74042969 -0.13679688 0.88320313 0 0 Z " fill="#E26C2A" transform="translate(356,291)"/>
<path d="M0 0 C1.46726798 3.81489674 0.43336419 6.29011622 -1 10 C-1.99 10 -2.98 10 -4 10 C-4 10.99 -4 11.98 -4 13 C-3.34 13.33 -2.68 13.66 -2 14 C-2.6875 15.9375 -2.6875 15.9375 -4 18 C-6.625 18.75 -6.625 18.75 -9 19 C-9 18.01 -9 17.02 -9 16 C-10.32 16 -11.64 16 -13 16 C-13 16.66 -13 17.32 -13 18 C-19.27 18 -25.54 18 -32 18 C-32 17.67 -32 17.34 -32 17 C-30.96101562 16.99742187 -29.92203125 16.99484375 -28.8515625 16.9921875 C-19.96037711 16.81075652 -12.96876748 16.13524823 -6 10 C-3.22142651 6.94356916 -1.31748516 3.95245549 0 0 Z " fill="#E26E31" transform="translate(176,245)"/>
<path d="M0 0 C1.98 0.99 1.98 0.99 4 2 C4 2.66 4 3.32 4 4 C4.66 4 5.32 4 6 4 C7.37310707 5.29233607 8.71034824 6.62437146 10 8 C10 7.34 10 6.68 10 6 C11.32 6 12.64 6 14 6 C14 6.66 14 7.32 14 8 C14.66 8 15.32 8 16 8 C15.773125 8.7425 15.54625 9.485 15.3125 10.25 C14.69741574 13.04797157 14.69741574 13.04797157 16.4375 15.1875 C16.953125 15.785625 17.46875 16.38375 18 17 C18 17.66 18 18.32 18 19 C18.639375 19.268125 19.27875 19.53625 19.9375 19.8125 C22 21 22 21 23 24 C23.66 24 24.32 24 25 24 C24.67 24.66 24.34 25.32 24 26 C15.08028463 18.40875288 6.94718931 10.47847903 0 1 C0 0.67 0 0.34 0 0 Z " fill="#E16F36" transform="translate(48,312)"/>
<path d="M0 0 C2.51564087 2.51564087 2.91099603 4.61111401 4 8 C5.04542695 10.65082942 6.17272759 13.26353664 7.3125 15.875 C7.61865234 16.58027832 7.92480469 17.28555664 8.24023438 18.01220703 C9.92593786 21.81911673 11.70935821 25.38449823 14 28.875 C14.66 29.90625 15.32 30.9375 16 32 C15.67 32.66 15.34 33.32 15 34 C12 30.25 12 30.25 12 28 C11.01 27.67 10.02 27.34 9 27 C9 25.68 9 24.36 9 23 C7.68 22.67 6.36 22.34 5 22 C5 20.68 5 19.36 5 18 C4.01 18 3.02 18 2 18 C2.04125 16.9275 2.0825 15.855 2.125 14.75 C2.26724803 11.18685635 2.26724803 11.18685635 1 9 C-0.48592838 6.02814323 -0.1255457 3.2641882 0 0 Z " fill="#DD733C" transform="translate(80,272)"/>
<path d="M0 0 C3.3 0 6.6 0 10 0 C11.65 4.95 13.3 9.9 15 15 C14.34 15 13.68 15 13 15 C12.67 13.68 12.34 12.36 12 11 C11.34 11 10.68 11 10 11 C9.67 9.68 9.34 8.36 9 7 C8.34 7 7.68 7 7 7 C6.67 7.66 6.34 8.32 6 9 C6 8.34 6 7.68 6 7 C5.34 7 4.68 7 4 7 C4 6.01 4 5.02 4 4 C5.32 4 6.64 4 8 4 C7.67 3.34 7.34 2.68 7 2 C5.68 2 4.36 2 3 2 C3 3.65 3 5.3 3 7 C2.34 7 1.68 7 1 7 C0.34 8.98 -0.32 10.96 -1 13 C-1.66 13 -2.32 13 -3 13 C-2.01 8.71 -1.02 4.42 0 0 Z " fill="#FDEFE4" transform="translate(195,243)"/>
<path d="M0 0 C0.66 0 1.32 0 2 0 C5.70457434 17.97869691 6.2873666 36.87881524 3 55 C2.67 55 2.34 55 2 55 C2.01047363 54.1248877 2.02094727 53.24977539 2.03173828 52.34814453 C2.35678359 30.26955405 2.35678359 30.26955405 0.4375 8.30078125 C0.06318306 5.47669365 -0.08693059 2.84154372 0 0 Z " fill="#FEEAD6" transform="translate(387,165)"/>
<path d="M0 0 C2.97770716 2.97770716 3.75728719 6.55262387 5.0625 10.5 C5.33271973 11.31065918 5.60293945 12.12131836 5.88134766 12.95654297 C7.72403451 18.67676455 8.80540165 23.96745115 9 30 C8.34 30 7.68 30 7 30 C6.67 28.35 6.34 26.7 6 25 C5.67 25 5.34 25 5 25 C4.67 21.37 4.34 17.74 4 14 C3.34 14 2.68 14 2 14 C2 16.31 2 18.62 2 21 C1.34 21.33 0.68 21.66 0 22 C0 14.74 0 7.48 0 0 Z " fill="#E26E33" transform="translate(376,130)"/>
<path d="M0 0 C2.475 0.495 2.475 0.495 5 1 C1.68130771 4.40871106 -1.73368322 7.51593201 -5.4375 10.5 C-6.39140625 11.27214844 -7.3453125 12.04429688 -8.328125 12.83984375 C-9.20984375 13.55269531 -10.0915625 14.26554687 -11 15 C-13.00705242 16.65849943 -15.00426022 18.32789369 -17 20 C-15.92871793 14.42933323 -13.47080166 9.5503425 -9 6 C-6.5 5.375 -6.5 5.375 -4 5 C-1.76591887 4.00916033 -1.76591887 4.00916033 0 3 C0 2.01 0 1.02 0 0 Z " fill="#FAF2E7" transform="translate(81,50)"/>
<path d="M0 0 C0.33 0 0.66 0 1 0 C1 3.63 1 7.26 1 11 C1.66 11 2.32 11 3 11 C2.88529863 12.75070517 2.75780972 14.50057536 2.625 16.25 C2.55539062 17.22453125 2.48578125 18.1990625 2.4140625 19.203125 C2.00938574 21.93660195 1.31867838 23.6092663 0 26 C-0.67784992 28.33010909 -1.34416793 30.66359824 -2 33 C-2.64199649 34.67632417 -3.29894157 36.34750513 -4 38 C-4.66 38 -5.32 38 -6 38 C-5.73445313 36.93265625 -5.46890625 35.8653125 -5.1953125 34.765625 C-2.42505877 23.22115554 -0.93825481 11.82694885 0 0 Z " fill="#DF773D" transform="translate(324,240)"/>
<path d="M0 0 C0.66 0.33 1.32 0.66 2 1 C1.21625 1.5775 0.4325 2.155 -0.375 2.75 C-3.06479539 4.73682561 -3.06479539 4.73682561 -4 7.1875 C-4.33 7.785625 -4.66 8.38375 -5 9 C-6.66321482 9.35015049 -8.33034549 9.68197057 -10 10 C-10.66 10.680625 -11.32 11.36125 -12 12.0625 C-14 14 -14 14 -16.75 14.25 C-17.4925 14.1675 -18.235 14.085 -19 14 C-19 14.99 -19 15.98 -19 17 C-19.639375 17.12375 -20.27875 17.2475 -20.9375 17.375 C-21.618125 17.58125 -22.29875 17.7875 -23 18 C-23.33 18.66 -23.66 19.32 -24 20 C-26.64 20 -29.28 20 -32 20 C-29.36221469 17.93251656 -26.76554245 16.26278987 -23.76953125 14.765625 C-22.9700708 14.35940918 -22.17061035 13.95319336 -21.34692383 13.53466797 C-20.51056396 13.11072754 -19.6742041 12.68678711 -18.8125 12.25 C-12.01140675 8.7493521 -5.70253097 5.17166473 0 0 Z " fill="#DA753C" transform="translate(280,331)"/>
<path d="M0 0 C2.97 0.495 2.97 0.495 6 1 C1.90428701 4.54049846 -2.41655265 7.01619704 -7.1875 9.5 C-7.939104 9.89437256 -8.69070801 10.28874512 -9.46508789 10.69506836 C-23.56086111 18 -23.56086111 18 -28 18 C-27.505 16.515 -27.505 16.515 -27 15 C-24.63671875 13.90234375 -24.63671875 13.90234375 -21.6875 12.9375 C-18.30975273 11.81459069 -15.14272252 10.67478419 -12 9 C-6.23076923 6 -6.23076923 6 -4 6 C-4.33 5.01 -4.66 4.02 -5 3 C-3.35 2.67 -1.7 2.34 0 2 C0 1.34 0 0.68 0 0 Z " fill="#D97545" transform="translate(181,147)"/>
<path d="M0 0 C0 0.66 0 1.32 0 2 C-5.88658542 4.10235194 -11.5672095 4.38644462 -17.79296875 4.65625 C-20.88830416 4.77514118 -20.88830416 4.77514118 -22.87890625 6.0546875 C-26.39714288 7.62266773 -29.97766552 6.93779722 -33.75 6.625 C-34.54277344 6.56828125 -35.33554688 6.5115625 -36.15234375 6.453125 C-38.10231735 6.31216305 -40.05128671 6.1574288 -42 6 C-42.33 5.34 -42.66 4.68 -43 4 C-41.69289062 3.96261719 -40.38578125 3.92523438 -39.0390625 3.88671875 C-28.36636292 3.51606217 -18.08594131 2.59842467 -7.58984375 0.62109375 C-4 0 -4 0 0 0 Z " fill="#D66D35" transform="translate(234,355)"/>
<path d="M0 0 C0.99 0.33 1.98 0.66 3 1 C-2.01015461 10.0182783 -10.20763105 15.91392009 -20 19 C-22.828125 19.125 -22.828125 19.125 -25 19 C-21.25 17 -21.25 17 -19 17 C-19 16.01 -19 15.02 -19 14 C-13.36453202 12.07881773 -13.36453202 12.07881773 -10.6875 11.5 C-10.130625 11.335 -9.57375 11.17 -9 11 C-8.67 10.34 -8.34 9.68 -8 9 C-7.01 8.67 -6.02 8.34 -5 8 C-5.33 7.01 -5.66 6.02 -6 5 C-5.34 4.67 -4.68 4.34 -4 4 C-3.01 4.33 -2.02 4.66 -1 5 C-1.33 4.01 -1.66 3.02 -2 2 C-1.34 2 -0.68 2 0 2 C0 1.34 0 0.68 0 0 Z " fill="#DD723A" transform="translate(284,260)"/>
<path d="M0 0 C0.66 0 1.32 0 2 0 C1.67 3.3 1.34 6.6 1 10 C11.23 10 21.46 10 32 10 C32 10.33 32 10.66 32 11 C24.52693844 11.85059237 17.07739564 12.13282633 9.5625 12.1875 C8.69850586 12.20039063 7.83451172 12.21328125 6.94433594 12.2265625 C2.51182531 12.23348019 -0.97116747 12.09300746 -5 10 C-4.01 9.67 -3.02 9.34 -2 9 C-2.04125 7.88625 -2.0825 6.7725 -2.125 5.625 C-2 2 -2 2 0 0 Z " fill="#DC6E35" transform="translate(77,210)"/>
<path d="M0 0 C-1.9375 0.5625 -1.9375 0.5625 -4 1 C-4.33 0.67 -4.66 0.34 -5 0 C-7.08135137 -0.0999519 -9.16625528 -0.12967207 -11.25 -0.125 C-12.38953125 -0.12757813 -13.5290625 -0.13015625 -14.703125 -0.1328125 C-17.64458557 -0.01431764 -20.18929911 0.13286888 -23 1 C-23.99 2.485 -23.99 2.485 -25 4 C-25 3.34 -25 2.68 -25 2 C-25.556875 2.495 -26.11375 2.99 -26.6875 3.5 C-29.38162983 5.24754367 -30.85375007 5.26218749 -34 5 C-25.46995195 -4.56399327 -11.24682965 -6.58351004 0 0 Z " fill="#FDE9D8" transform="translate(264,214)"/>
<path d="M0 0 C1.51953125 1.36328125 1.51953125 1.36328125 3 3 C2.6875 5.1875 2.6875 5.1875 2 7 C1.34 7 0.68 7 0 7 C-0.33 8.65 -0.66 10.3 -1 12 C-2.65 12.33 -4.3 12.66 -6 13 C-6.33 14.98 -6.66 16.96 -7 19 C-8.65 19 -10.3 19 -12 19 C-12.33 19.99 -12.66 20.98 -13 22 C-13.66 21.67 -14.32 21.34 -15 21 C-14.41992188 20.32195312 -13.83984375 19.64390625 -13.2421875 18.9453125 C-8.18650796 12.92187912 -3.80705172 6.88255233 0 0 Z " fill="#DC6E31" transform="translate(309,297)"/>
<path d="M0 0 C15.84 0 31.68 0 48 0 C46.02 0.99 46.02 0.99 44 2 C43.401875 2.391875 42.80375 2.78375 42.1875 3.1875 C39.59509446 4.15039349 37.96479256 3.68094826 35.29370117 3.25561523 C30.24452295 2.69292342 25.13593906 2.90000443 20.0625 2.9375 C18.90169922 2.94201172 17.74089844 2.94652344 16.54492188 2.95117188 C13.69656066 2.96289353 10.84830778 2.9793024 8 3 C8 2.67 8 2.34 8 2 C5.36 1.67 2.72 1.34 0 1 C0 0.67 0 0.34 0 0 Z " fill="#FDEBD8" transform="translate(176,384)"/>
<path d="M0 0 C1.4540625 0.0309375 1.4540625 0.0309375 2.9375 0.0625 C-0.35770593 2.25930395 -3.64151685 3.39927579 -7.36328125 4.62890625 C-8.07727585 4.86786118 -8.79127045 5.1068161 -9.52690125 5.35301208 C-11.03664678 5.85694034 -12.54715061 6.35860165 -14.05834961 6.8581543 C-16.35824637 7.6194543 -18.65480148 8.39024708 -20.95117188 9.16210938 C-22.42168308 9.65161859 -23.89238043 10.14056904 -25.36328125 10.62890625 C-26.04473709 10.85808243 -26.72619293 11.08725861 -27.42829895 11.32337952 C-31.28658529 12.59078007 -35.03948472 13.50683491 -39.0625 14.0625 C-38.7325 13.4025 -38.4025 12.7425 -38.0625 12.0625 C-35.5 11.4375 -35.5 11.4375 -33.0625 11.0625 C-33.0625 10.4025 -33.0625 9.7425 -33.0625 9.0625 C-32.07507813 8.86914062 -31.08765625 8.67578125 -30.0703125 8.4765625 C-28.14832031 8.08597656 -28.14832031 8.08597656 -26.1875 7.6875 C-24.91132812 7.43226563 -23.63515625 7.17703125 -22.3203125 6.9140625 C-19.00325544 6.34012104 -19.00325544 6.34012104 -17.0625 4.0625 C-14.89256442 3.47275158 -12.700799 2.96141889 -10.5 2.5 C-6.79319397 1.7164145 -3.56728775 0.07280179 0 0 Z " fill="#D97C49" transform="translate(141.0625,167.9375)"/>
<path d="M0 0 C0.99 0.33 1.98 0.66 3 1 C2.27275406 6.52706913 0.66554027 11.69960141 -1 17 C-3 15 -3 15 -3.125 11.375 C-3.08375 10.26125 -3.0425 9.1475 -3 8 C-3.99 8 -4.98 8 -6 8 C-6.33 6.68 -6.66 5.36 -7 4 C-6.030625 3.71125 -5.06125 3.4225 -4.0625 3.125 C-0.89335797 2.35785318 -0.89335797 2.35785318 0 0 Z " fill="#F16324" transform="translate(185,213)"/>
<path d="M0 0 C0.67675781 -0.00515625 1.35351562 -0.0103125 2.05078125 -0.015625 C6.3244388 0.04303304 9.83849071 0.76121488 13.8125 2.3125 C13.8125 2.9725 13.8125 3.6325 13.8125 4.3125 C14.4725 4.3125 15.1325 4.3125 15.8125 4.3125 C15.8125 4.9725 15.8125 5.6325 15.8125 6.3125 C15.26464844 6.0959375 14.71679688 5.879375 14.15234375 5.65625 C5.9629906 2.77998938 -3.53111906 1.44855706 -11.92578125 4.21484375 C-14.32746231 5.36074799 -14.32746231 5.36074799 -17.1875 7.3125 C-17.1875 5.9925 -17.1875 4.6725 -17.1875 3.3125 C-11.39985229 0.83207955 -6.2819021 0.01154761 0 0 Z " fill="#D8713C" transform="translate(151.1875,208.6875)"/>
<path d="M0 0 C0.93423645 3.01031744 1.04449911 3.86650268 0 7 C-0.99 7.495 -0.99 7.495 -2 8 C-2.33 8.99 -2.66 9.98 -3 11 C-6.84857104 15.3150645 -11.33579518 18.63205061 -16 22 C-16.66 21.67 -17.32 21.34 -18 21 C-17.00419922 19.93072266 -17.00419922 19.93072266 -15.98828125 18.83984375 C-10.17025793 12.5931664 -10.17025793 12.5931664 -5 5.8125 C-4.34 4.884375 -3.68 3.95625 -3 3 C-2.34 3 -1.68 3 -1 3 C-0.67 2.01 -0.34 1.02 0 0 Z " fill="#FAF0E4" transform="translate(355,309)"/>
<path d="M0 0 C0.33 0 0.66 0 1 0 C1 4.95 1 9.9 1 15 C1.66 15.33 2.32 15.66 3 16 C2.34 18.31 1.68 20.62 1 23 C0.21625 22.938125 -0.5675 22.87625 -1.375 22.8125 C-2.674375 22.9053125 -2.674375 22.9053125 -4 23 C-4.66 23.99 -5.32 24.98 -6 26 C-7.32 25.67 -8.64 25.34 -10 25 C-9.27683594 24.22076172 -9.27683594 24.22076172 -8.5390625 23.42578125 C-7.90742188 22.72839844 -7.27578125 22.03101563 -6.625 21.3125 C-5.99851562 20.62800781 -5.37203125 19.94351563 -4.7265625 19.23828125 C-1.42271633 14.95524085 -0.72610632 11.01261248 -0.375 5.6875 C-0.30023438 4.61886719 -0.22546875 3.55023438 -0.1484375 2.44921875 C-0.09945313 1.64097656 -0.05046875 0.83273438 0 0 Z " fill="#E97543" transform="translate(276,232)"/>
<path d="M0 0 C0.33 0 0.66 0 1 0 C3.73152893 16.44221299 4.13116973 32.36364285 4 49 C3.67 49 3.34 49 3 49 C2.67 43.06 2.34 37.12 2 31 C1.67 31 1.34 31 1 31 C0.67 20.77 0.34 10.54 0 0 Z " fill="#DD8353" transform="translate(386,163)"/>
<path d="M0 0 C0.598125 0.20625 1.19625 0.4125 1.8125 0.625 C-6.93745239 5.21994707 -15.76876558 9.42527634 -24.9375 13.125 C-26.22285645 13.6499707 -26.22285645 13.6499707 -27.53417969 14.18554688 C-28.34274414 14.50587891 -29.15130859 14.82621094 -29.984375 15.15625 C-30.69948242 15.44048828 -31.41458984 15.72472656 -32.15136719 16.01757812 C-34.1875 16.625 -34.1875 16.625 -38.1875 16.625 C-38.1875 15.965 -38.1875 15.305 -38.1875 14.625 C-37.60484375 14.46644531 -37.0221875 14.30789063 -36.421875 14.14453125 C-30.30940823 12.40497703 -24.56600964 10.18212486 -18.75390625 7.61328125 C-16.1875 6.625 -16.1875 6.625 -13.1875 6.625 C-13.1875 5.965 -13.1875 5.305 -13.1875 4.625 C-12.37345703 4.33496094 -12.37345703 4.33496094 -11.54296875 4.0390625 C-10.82753906 3.77867187 -10.11210937 3.51828125 -9.375 3.25 C-8.66730469 2.99476563 -7.95960938 2.73953125 -7.23046875 2.4765625 C-0.91335438 -0.15657504 -0.91335438 -0.15657504 0 0 Z " fill="#D67744" transform="translate(294.1875,360.375)"/>
<path d="M0 0 C4.46839215 -0.21278058 7.82262526 0.40861915 12 2 C12 1.34 12 0.68 12 0 C13.32 0.33 14.64 0.66 16 1 C16 2.32 16 3.64 16 5 C21.94 5.99 21.94 5.99 28 7 C28 7.66 28 8.32 28 9 C22.26679152 9.34429189 18.16200876 8.27378428 12.875 6.125 C12.18535156 5.85558594 11.49570313 5.58617187 10.78515625 5.30859375 C8.85183127 4.5507895 6.92518081 3.77822013 5 3 C4.01257813 2.60554688 3.02515625 2.21109375 2.0078125 1.8046875 C1.34523437 1.53914063 0.68265625 1.27359375 0 1 C0 0.67 0 0.34 0 0 Z " fill="#FDE8D4" transform="translate(144,346)"/>
<path d="M0 0 C0.66 0.33 1.32 0.66 2 1 C-1.65802693 6.09906784 -3.76157892 7.46982124 -10 9 C-10.99 10.485 -10.99 10.485 -12 12 C-14.6875 12.625 -14.6875 12.625 -18 13 C-19.27875 13.185625 -20.5575 13.37125 -21.875 13.5625 C-22.90625 13.706875 -23.9375 13.85125 -25 14 C-21.35417421 10.96970324 -17.29855867 9.05431469 -13.0625 7 C-11.65660098 6.31444704 -10.25163022 5.62698675 -8.84765625 4.9375 C-8.18523926 4.61265625 -7.52282227 4.2878125 -6.84033203 3.953125 C-5.22128397 3.11460502 -3.66406725 2.1589243 -2.12109375 1.1875 C-1.42113281 0.795625 -0.72117187 0.40375 0 0 Z " fill="#FAE5CE" transform="translate(303,356)"/>
<path d="M0 0 C1.19786133 -0.00483398 1.19786133 -0.00483398 2.41992188 -0.00976562 C7.72674404 0.0378098 12.33801041 0.84632373 17.4375 2.3125 C17.4375 2.9725 17.4375 3.6325 17.4375 4.3125 C16.32375 4.1475 15.21 3.9825 14.0625 3.8125 C3.31411351 2.63529577 -8.13328338 2.22236174 -18.5625 5.3125 C-18.5625 4.6525 -18.5625 3.9925 -18.5625 3.3125 C-12.2398765 0.81351781 -6.77895964 -0.13744849 0 0 Z " fill="#FEE8D9" transform="translate(150.5625,190.6875)"/>
<path d="M0 0 C0.33 0 0.66 0 1 0 C1.21420052 6.34476713 0.43562213 12.099438 -0.8125 18.3125 C-1.08271973 19.69538208 -1.08271973 19.69538208 -1.35839844 21.10620117 C-2.6293711 27.48412196 -4.07801479 33.78266905 -6 40 C-6.33 40 -6.66 40 -7 40 C-6.88628503 37.70774565 -6.75869036 35.41617612 -6.625 33.125 C-6.55539062 31.84882813 -6.48578125 30.57265625 -6.4140625 29.2578125 C-6 26 -6 26 -4 24 C-2.26316389 17.56348972 -1.71222256 10.84528821 -1.24609375 4.21484375 C-1 2 -1 2 0 0 Z " fill="#D87946" transform="translate(388,216)"/>
<path d="M0 0 C0.55429688 0.23074219 1.10859375 0.46148437 1.6796875 0.69921875 C0.4296875 2.19921875 0.4296875 2.19921875 -1.3203125 3.69921875 C-2.6403125 3.69921875 -3.9603125 3.69921875 -5.3203125 3.69921875 C-5.5471875 4.31796875 -5.7740625 4.93671875 -6.0078125 5.57421875 C-7.3203125 7.69921875 -7.3203125 7.69921875 -9.7578125 8.57421875 C-13.29194017 10.12578699 -13.75117949 12.27565581 -15.3203125 15.69921875 C-16.3103125 16.35921875 -17.3003125 17.01921875 -18.3203125 17.69921875 C-18.6503125 18.68921875 -18.9803125 19.67921875 -19.3203125 20.69921875 C-19.9803125 20.69921875 -20.6403125 20.69921875 -21.3203125 20.69921875 C-19.98780459 17.11169745 -18.4895955 13.86275645 -16.3203125 10.69921875 C-15.6603125 10.69921875 -15.0003125 10.69921875 -14.3203125 10.69921875 C-14.09085938 10.11785156 -13.86140625 9.53648437 -13.625 8.9375 C-11.97878876 6.11331125 -10.11021337 4.7648017 -7.4453125 2.88671875 C-6.14980469 1.94892578 -6.14980469 1.94892578 -4.828125 0.9921875 C-2.3203125 -0.30078125 -2.3203125 -0.30078125 0 0 Z " fill="#DA7A48" transform="translate(230.3203125,197.30078125)"/>
<path d="M0 0 C0.66 0 1.32 0 2 0 C0.5112844 6.2593724 -1.10028545 12.43333544 -3.0625 18.5625 C-4.8764489 24.3170965 -6.09221537 30.0396772 -7 36 C-7.33 36 -7.66 36 -8 36 C-8 33.36 -8 30.72 -8 28 C-8.66 28 -9.32 28 -10 28 C-9.5479529 25.55894567 -8.92964958 23.88488114 -7.625 21.75 C-3.69974341 15.10725807 -1.7891929 7.4549704 0 0 Z " fill="#FDEBD7" transform="translate(21,132)"/>
<path d="M0 0 C0.94101563 0.54269531 1.88203125 1.08539063 2.8515625 1.64453125 C4.10932463 2.36727516 5.36713997 3.08992648 6.625 3.8125 C7.24246094 4.16892578 7.85992187 4.52535156 8.49609375 4.89257812 C12.27265506 7.05913172 16.08447772 9.0904299 20 11 C17.58958492 11.85894524 16.44293969 12.18316393 14.03515625 11.1875 C13.38417969 10.795625 12.73320312 10.40375 12.0625 10 C8.89551544 8.16545565 8.89551544 8.16545565 5.3125 8.5625 C4.1678125 8.7790625 4.1678125 8.7790625 3 9 C0.1875 6.5625 0.1875 6.5625 -2 4 C-1.34 2.68 -0.68 1.36 0 0 Z " fill="#FDF2E1" transform="translate(227,149)"/>
<path d="M0 0 C0.80759766 -0.01224609 1.61519531 -0.02449219 2.44726562 -0.03710938 C6.81602255 -0.04784342 10.21004059 0.14632915 14.1875 2.1875 C14.1875 2.5175 14.1875 2.8475 14.1875 3.1875 C5.9375 3.1875 -2.3125 3.1875 -10.8125 3.1875 C-10.8125 2.5275 -10.8125 1.8675 -10.8125 1.1875 C-7.45228043 -0.49260978 -3.69152188 0.00290442 0 0 Z " fill="#E16A2E" transform="translate(90.8125,235.8125)"/>
<path d="M0 0 C1.28874023 -0.01836914 1.28874023 -0.01836914 2.60351562 -0.03710938 C3.8497168 -0.04000977 3.8497168 -0.04000977 5.12109375 -0.04296875 C5.87704834 -0.04707764 6.63300293 -0.05118652 7.41186523 -0.05541992 C9.83354102 0.2181148 11.46025389 0.98455633 13.5625 2.1875 C12.34433594 2.23648438 11.12617188 2.28546875 9.87109375 2.3359375 C8.24737563 2.41102273 6.62367874 2.48656802 5 2.5625 C3.80020508 2.60890625 3.80020508 2.60890625 2.57617188 2.65625 C-1.21893327 2.8421327 -4.69751725 3.14304801 -8.34375 4.25 C-11.58460994 5.23207877 -13.24088635 5.1561708 -16.4375 4.1875 C-11.02820871 -0.10262758 -6.63952823 0.00495857 0 0 Z " fill="#D77543" transform="translate(248.4375,192.8125)"/>
<path d="M0 0 C-2.98274947 1.66014462 -5.6006933 2.3153835 -8.9375 2.9375 C-12.22036054 3.89339175 -13.6329773 4.49274693 -15.65625 7.2890625 C-16.9809659 10.15658778 -18.03881125 12.99140106 -19 16 C-19.31710938 16.97195312 -19.63421875 17.94390625 -19.9609375 18.9453125 C-20.68814463 21.28705289 -21.36794994 23.63109692 -22 26 C-22.33 26 -22.66 26 -23 26 C-23 23.69 -23 21.38 -23 19 C-22.34 19 -21.68 19 -21 19 C-21.04125 18.0925 -21.0825 17.185 -21.125 16.25 C-21.00187452 13.04873748 -20.50074653 11.72010308 -19 9 C-19 8.01 -19 7.02 -19 6 C-18.34 6 -17.68 6 -17 6 C-16.67 4.68 -16.34 3.36 -16 2 C-14.27192682 1.66104344 -12.54248026 1.32908475 -10.8125 1 C-9.84957031 0.814375 -8.88664062 0.62875 -7.89453125 0.4375 C-5.2065794 0.03122388 -2.71228981 -0.07933572 0 0 Z " fill="#DE7949" transform="translate(102,182)"/>
<path d="M0 0 C1 3 1 3 0 6 C-0.76731207 13.67312067 0.34562969 19.26475545 4 26 C4.66943531 27.33194542 5.33691996 28.66487938 6 30 C5.34 30 4.68 30 4 30 C4 29.34 4 28.68 4 28 C2.68 28 1.36 28 0 28 C0 26.68 0 25.36 0 24 C-0.66 24 -1.32 24 -2 24 C-2.06058594 22.87980469 -2.12117188 21.75960937 -2.18359375 20.60546875 C-2.26801424 19.13280016 -2.35266149 17.66014456 -2.4375 16.1875 C-2.47681641 15.44951172 -2.51613281 14.71152344 -2.55664062 13.95117188 C-2.74381035 10.76928658 -2.98720793 8.03837622 -4 5 C-2.0625 2.3125 -2.0625 2.3125 0 0 Z " fill="#DD7543" transform="translate(125,225)"/>
<path d="M0 0 C0.99 0 1.98 0 3 0 C1.40907948 4.13639336 -1.60474918 7.23213248 -5 10 C-5.66 10 -6.32 10 -7 10 C-7 10.66 -7 11.32 -7 12 C-8.78104718 13.60178593 -10.62537278 15.13381926 -12.5 16.625 C-13.5209375 17.44226563 -14.541875 18.25953125 -15.59375 19.1015625 C-16.3878125 19.72804688 -17.181875 20.35453125 -18 21 C-18.66 20.34 -19.32 19.68 -20 19 C-19.34 19 -18.68 19 -18 19 C-18 18.34 -18 17.68 -18 17 C-17.38125 16.731875 -16.7625 16.46375 -16.125 16.1875 C-13.7004767 15.04443152 -13.7004767 15.04443152 -12 12 C-11.34 12 -10.68 12 -10 12 C-10 11.01 -10 10.02 -10 9 C-8.35 8.67 -6.7 8.34 -5 8 C-5 7.01 -5 6.02 -5 5 C-4.01 5 -3.02 5 -2 5 C-1.855625 4.360625 -1.71125 3.72125 -1.5625 3.0625 C-1 1 -1 1 0 0 Z " fill="#DC7E4F" transform="translate(340,323)"/>
<path d="M0 0 C0.99 0.495 1.98 0.99 3 1.5 C7.33007027 3.13735632 11.54482284 3.3041114 16.125 3.3125 C16.805625 3.31765625 17.48625 3.3228125 18.1875 3.328125 C22.47984117 3.26966899 26.00905035 2.56032455 30 1 C30 1.66 30 2.32 30 3 C29.34 3 28.68 3 28 3 C27.67 3.99 27.34 4.98 27 6 C17.73443499 7.26099405 9.45624937 7.56133942 1 3 C0.67 2.01 0.34 1.02 0 0 Z " fill="#E07F50" transform="translate(234,258)"/>
<path d="M0 0 C0.99 0.495 0.99 0.495 2 1 C3.21774968 5.29794004 4.17672405 9.60919494 5 14 C6.670625 14.433125 6.670625 14.433125 8.375 14.875 C12 16 12 16 14 18 C13.34 18.66 12.68 19.32 12 20 C11.30251417 21.31747324 10.63040043 22.64914193 10 24 C4.51365555 16.01017799 0.63245057 9.81388809 0 0 Z " fill="#E36C32" transform="translate(106,241)"/>
<path d="M0 0 C0.66 0.33 1.32 0.66 2 1 C-2.03944161 5.1787327 -5.73330916 5.61969036 -11.2265625 6.4296875 C-13.93221783 6.98606169 -15.79933221 7.77516603 -18.1875 9.125 C-22.26689292 11.40540598 -25.38137584 11.32990173 -30 11 C-27.56803731 8.56803731 -25.71636663 8.11409519 -22.44140625 7.08984375 C-21.33345703 6.73986328 -20.22550781 6.38988281 -19.08398438 6.02929688 C-17.34084961 5.48885742 -17.34084961 5.48885742 -15.5625 4.9375 C-13.82516602 4.39125977 -13.82516602 4.39125977 -12.05273438 3.83398438 C-9.90397319 3.15851674 -7.75439102 2.48565173 -5.60375977 1.81616211 C-3.73007896 1.22884707 -1.86280886 0.62093629 0 0 Z " fill="#FCE0C8" transform="translate(144,168)"/>
<path d="M0 0 C2.93902349 -0.13481759 5.87189559 -0.23399416 8.8125 -0.3125 C10.06256836 -0.3753418 10.06256836 -0.3753418 11.33789062 -0.43945312 C13.65851795 -0.48605207 15.7269737 -0.47548292 18 0 C20.10715614 2.43255501 21 3.77575232 21 7 C13.87352969 5.29977612 6.9165788 3.42080258 0 1 C0 0.67 0 0.34 0 0 Z " fill="#DE7A45" transform="translate(274,170)"/>
<path d="M0 0 C0.66 0.33 1.32 0.66 2 1 C1.54625 1.70125 1.0925 2.4025 0.625 3.125 C-2.96791882 9.48170253 -3.25414753 14.85563047 -3 22 C-4.32 22 -5.64 22 -7 22 C-7.33 23.32 -7.66 24.64 -8 26 C-10.28448668 19.73991311 -6.23487835 12.68603482 -3.6171875 6.9921875 C-2.44513815 4.64139138 -1.247734 2.3113761 0 0 Z " fill="#FDEDDA" transform="translate(88,186)"/>
<path d="M0 0 C0.33 0 0.66 0 1 0 C1 2.31 1 4.62 1 7 C9.58 7 18.16 7 27 7 C27.33 6.01 27.66 5.02 28 4 C28.66 4 29.32 4 30 4 C30 3.34 30 2.68 30 2 C31.32 2 32.64 2 34 2 C32.125 6.875 32.125 6.875 31 8 C28.70848583 8.08790975 26.41427476 8.10694038 24.12109375 8.09765625 C23.09110008 8.09553383 23.09110008 8.09553383 22.04029846 8.09336853 C19.83932199 8.08775479 17.63844591 8.07520007 15.4375 8.0625 C13.94856917 8.05748676 12.45963676 8.05292355 10.97070312 8.04882812 C7.31376925 8.03778093 3.65689442 8.02050713 0 8 C0 5.36 0 2.72 0 0 Z " fill="#FBD7BD" transform="translate(78,212)"/>
<path d="M0 0 C-0.33 0.66 -0.66 1.32 -1 2 C-3.28515625 2.6328125 -3.28515625 2.6328125 -6.0625 3.125 C-6.98160156 3.29257812 -7.90070313 3.46015625 -8.84765625 3.6328125 C-9.91306641 3.81457031 -9.91306641 3.81457031 -11 4 C-11 4.66 -11 5.32 -11 6 C-11.72058594 6.12375 -12.44117188 6.2475 -13.18359375 6.375 C-15.98826192 6.99739516 -18.41783525 7.88817803 -21.0625 9 C-24.02591904 10.24198764 -26.86036569 11.30391479 -30 12 C-30 11.34 -30 10.68 -30 10 C-23.45503127 6.80526365 -16.78658591 4.08565392 -9.9375 1.625 C-9.18734619 1.35026855 -8.43719238 1.07553711 -7.66430664 0.79248047 C-2.23992881 -1.11996441 -2.23992881 -1.11996441 0 0 Z " fill="#DC7745" transform="translate(143,25)"/>
<path d="M0 0 C1 3 1 3 -0.4375 6.1875 C-1.2109375 7.5796875 -1.2109375 7.5796875 -2 9 C-1.01 9.33 -0.02 9.66 1 10 C0.360625 10.12375 -0.27875 10.2475 -0.9375 10.375 C-1.618125 10.58125 -2.29875 10.7875 -3 11 C-3.33 11.66 -3.66 12.32 -4 13 C-4.66 12.67 -5.32 12.34 -6 12 C-5.9175 12.70125 -5.835 13.4025 -5.75 14.125 C-6.08446819 17.97138418 -7.63496961 20.00893216 -10 23 C-10.66 23 -11.32 23 -12 23 C-10.49289345 17.77042263 -8.13433901 13.36968968 -5.4375 8.6875 C-5.02564453 7.95982422 -4.61378906 7.23214844 -4.18945312 6.48242188 C-1.15697714 1.15697714 -1.15697714 1.15697714 0 0 Z " fill="#DF7441" transform="translate(39,101)"/>
<path d="M0 0 C0.33 0.66 0.66 1.32 1 2 C0 5 0 5 -2 6 C-2 8.64 -2 11.28 -2 14 C-2.99 14.33 -3.98 14.66 -5 15 C-5.99 14.01 -6.98 13.02 -8 12 C-8.309375 12.61875 -8.61875 13.2375 -8.9375 13.875 C-9.625 15.25 -10.3125 16.625 -11 18 C-11.66 17.67 -12.32 17.34 -13 17 C-8.83031167 11.1851989 -4.68279275 5.41447912 0 0 Z " fill="#DE703A" transform="translate(56,78)"/>
<path d="M0 0 C0.33 0 0.66 0 1 0 C1.495 4.95 1.495 4.95 2 10 C-8.56 10 -19.12 10 -30 10 C-31.32 7.03 -32.64 4.06 -34 1 C-33.34 1 -32.68 1 -32 1 C-29.25624329 3.95481492 -29 4.77471908 -29 9 C-19.43 9 -9.86 9 0 9 C0 6.03 0 3.06 0 0 Z " fill="#FDDBC1" transform="translate(321,210)"/>
<path d="M0 0 C0.80872559 -0.00064453 1.61745117 -0.00128906 2.45068359 -0.00195312 C8.02252602 0.04742473 13.00828727 0.59736289 18.375 2.1875 C18.375 2.5175 18.375 2.8475 18.375 3.1875 C7.155 3.1875 -4.065 3.1875 -15.625 3.1875 C-10.15134957 0.45067479 -6.0132046 -0.0048621 0 0 Z " fill="#D57949" transform="translate(149.625,192.8125)"/>
<path d="M0 0 C4.78356485 4.39570824 7.71374944 8.09132496 8.36328125 14.69140625 C8.34652344 15.96886719 8.32976562 17.24632812 8.3125 18.5625 C8.30863281 19.84253906 8.30476563 21.12257812 8.30078125 22.44140625 C8.02112489 25.75006788 7.42962961 28.03252181 6 31 C5.67 31 5.34 31 5 31 C5 28.69 5 26.38 5 24 C5.66 24 6.32 24 7 24 C7 20.7 7 17.4 7 14 C6.34 14 5.68 14 5 14 C4.9071875 12.4221875 4.9071875 12.4221875 4.8125 10.8125 C3.86591384 6.3708265 2.40843742 4.88406243 -1 2 C-0.67 1.34 -0.34 0.68 0 0 Z " fill="#FDECD7" transform="translate(268,218)"/>
<path d="M0 0 C4.85925178 0.7177338 9.16333575 2.54946827 13.6875 4.375 C20.04712669 6.90046728 26.37444222 9.25205134 33 11 C33 11.33 33 11.66 33 12 C22.45824491 11.35458642 10.13623099 7.31014441 1 2 C0.67 1.34 0.34 0.68 0 0 Z " fill="#FDE8D3" transform="translate(247,161)"/>
<path d="M0 0 C0.33 0.99 0.66 1.98 1 3 C-0.50433594 2.51466797 -0.50433594 2.51466797 -2.0390625 2.01953125 C-11.34151907 -0.62528483 -21.178029 0.28548589 -30 4 C-30 3.34 -30 2.68 -30 2 C-20.376644 -2.09815921 -10.07422422 -4.29129825 0 0 Z " fill="#D27542" transform="translate(263,211)"/>
<path d="M0 0 C0.99 0.33 1.98 0.66 3 1 C1.58319756 5.32046898 -0.53763785 8.00461199 -3.625 11.3125 C-4.44226563 12.19550781 -5.25953125 13.07851563 -6.1015625 13.98828125 C-7.04128906 14.98408203 -7.04128906 14.98408203 -8 16 C-8.33 14.68 -8.66 13.36 -9 12 C-8.01 11.34 -7.02 10.68 -6 10 C-5.690625 9.05125 -5.38125 8.1025 -5.0625 7.125 C-3.91894112 3.76159153 -2.64937074 2.29612131 0 0 Z " fill="#FAF6E6" transform="translate(301,304)"/>
<path d="M0 0 C0.763125 0.309375 1.52625 0.61875 2.3125 0.9375 C4.18789677 1.67893593 6.08684652 2.36228217 8 3 C8 3.66 8 4.32 8 5 C7.01 5 6.02 5 5 5 C5.33 5.99 5.66 6.98 6 8 C0.64951939 7.62671065 -1.50912907 6.0042343 -5 2 C-3.35 2 -1.7 2 0 2 C0 1.34 0 0.68 0 0 Z " fill="#E46F34" transform="translate(123,265)"/>
<path d="M0 0 C0.33 1.98 0.66 3.96 1 6 C2.98 5.67 4.96 5.34 7 5 C7.33 5.99 7.66 6.98 8 8 C11.51190809 9.22969878 11.51190809 9.22969878 15 10 C13.37109375 11.16015625 13.37109375 11.16015625 11 12 C4.44641002 9.82748943 -1.5956936 6.34808635 -6 1 C-3.92446352 0.4465236 -2.15634036 0 0 0 Z " fill="#DE7847" transform="translate(224,267)"/>
<path d="M0 0 C0.33 0.99 0.66 1.98 1 3 C0.38125 4.051875 -0.2375 5.10375 -0.875 6.1875 C-4.32833537 12.51067614 -3.82932914 19.96836048 -4 27 C-7.14666719 21.7470959 -6.81058053 15.91048304 -6 10 C-4.39785648 6.33463097 -2.41366089 3.18229695 0 0 Z " fill="#FBDDC0" transform="translate(229,219)"/>
<path d="M0 0 C0.33 0.99 0.66 1.98 1 3 C1.66 3 2.32 3 3 3 C3 3.99 3 4.98 3 6 C-0.31371 8.20914 -1.3446021 8.22481553 -5.1875 8.125 C-6.08855469 8.10695313 -6.98960938 8.08890625 -7.91796875 8.0703125 C-8.60503906 8.04710937 -9.29210937 8.02390625 -10 8 C-6.88983545 4.71211176 -3.98381075 2.16264012 0 0 Z " fill="#E06E32" transform="translate(83,54)"/>
<path d="M0 0 C1.34191406 0.77923828 1.34191406 0.77923828 2.7109375 1.57421875 C9.70295237 5.61396341 16.71316539 9.50769217 24 13 C24 13.33 24 13.66 24 14 C21.69 14 19.38 14 17 14 C16.67 13.34 16.34 12.68 16 12 C15.01 11.67 14.02 11.34 13 11 C13 10.34 13 9.68 13 9 C10.36 8.34 7.72 7.68 5 7 C5 6.34 5 5.68 5 5 C4.34 5 3.68 5 3 5 C3 4.34 3 3.68 3 3 C2.01 3 1.02 3 0 3 C0 2.01 0 1.02 0 0 Z " fill="#D87944" transform="translate(123,334)"/>
<path d="M0 0 C4.96916636 0.51405169 9.29026351 1.23384882 14 3 C14 2.01 14 1.02 14 0 C14.66 0 15.32 0 16 0 C16 0.66 16 1.32 16 2 C17.32 2.66 18.64 3.32 20 4 C19.34 4 18.68 4 18 4 C18 4.66 18 5.32 18 6 C19.32 6.66 20.64 7.32 22 8 C16.86243532 7.35983027 12.41209819 5.80299667 7.625 3.9375 C6.88894531 3.65583984 6.15289062 3.37417969 5.39453125 3.08398438 C3.5944264 2.39433382 1.7969379 1.69786068 0 1 C0 0.67 0 0.34 0 0 Z " fill="#E07641" transform="translate(252,162)"/>
<path d="M0 0 C0.66 0 1.32 0 2 0 C0.22226408 4.64803872 -1.88097966 9.12592057 -4 13.625 C-4.35578125 14.388125 -4.7115625 15.15125 -5.078125 15.9375 C-5.42359375 16.67226562 -5.7690625 17.40703125 -6.125 18.1640625 C-6.43695312 18.82873535 -6.74890625 19.4934082 -7.0703125 20.17822266 C-8 22 -8 22 -10 25 C-9.54584515 19.64097277 -8.92792948 16.55455697 -6 12 C-4.93384922 9.42073522 -3.94090375 6.82161767 -2.96484375 4.20703125 C-2 2 -2 2 0 0 Z " fill="#FDEEDB" transform="translate(33,107)"/>
<path d="M0 0 C4.84687054 0.60585882 9.81537165 1.36457448 14 4 C16.19853946 6.99689178 18 10.22477078 18 14 C15 13 15 13 13 12 C12.67 10.02 12.34 8.04 12 6 C8.04 4.68 4.08 3.36 0 2 C0 1.34 0 0.68 0 0 Z " fill="#FDE8D6" transform="translate(298,179)"/>
<path d="M0 0 C0.12375 0.928125 0.12375 0.928125 0.25 1.875 C0.81258459 4.18437567 0.81258459 4.18437567 3.0625 5.25 C3.701875 5.4975 4.34125 5.745 5 6 C-1.90352555 6.51137226 -6.74827614 4.86964374 -13 2 C-13 1.67 -13 1.34 -13 1 C-11.39602723 0.83147753 -9.7918131 0.66525114 -8.1875 0.5 C-7.29417969 0.4071875 -6.40085937 0.314375 -5.48046875 0.21875 C-3 0 -3 0 0 0 Z " fill="#E36D34" transform="translate(309,176)"/>
<path d="M0 0 C2.31 0 4.62 0 7 0 C6.50341703 5.66104589 5.45489316 9.87674471 3 15 C2.67 15 2.34 15 2 15 C2.020625 13.906875 2.04125 12.81375 2.0625 11.6875 C2.18544452 8.05615809 2.18544452 8.05615809 1 5 C1.33 4.01 1.66 3.02 2 2 C1.34 2 0.68 2 0 2 C0 1.34 0 0.68 0 0 Z " fill="#FAF2E5" transform="translate(312,272)"/>
<path d="M0 0 C0.33 0.99 0.66 1.98 1 3 C-1.49977726 5.60129106 -3.97372189 8.02044532 -7 10 C-10.5 9.4375 -10.5 9.4375 -13 8 C-8.98745115 4.48901975 -4.79016959 2.23462006 0 0 Z " fill="#E56C2D" transform="translate(111,36)"/>
<path d="M0 0 C1.98 0 3.96 0 6 0 C8.66590937 4.55426184 9.31563182 7.73946963 9 13 C4.76568424 9.39299028 2.5307901 4.85413839 0 0 Z " fill="#E07545" transform="translate(39,299)"/>
<path d="M0 0 C2.25426497 2.92647049 4.30021193 5.92485561 6.25 9.0625 C6.79140625 9.91972656 7.3328125 10.77695312 7.890625 11.66015625 C9 14 9 14 8 17 C5.9375 17.6875 5.9375 17.6875 4 18 C3 12.125 3 12.125 3 11 C2.67 11 2.34 11 2 11 C0.57741188 7.17679443 -0.24042276 4.08718695 0 0 Z " fill="#FCE9D8" transform="translate(31,286)"/>
<path d="M0 0 C5.26577087 3.30641427 9.50265396 6.75398094 13 12 C12.67 12.66 12.34 13.32 12 14 C11.34 13.67 10.68 13.34 10 13 C9.01 13 8.02 13 7 13 C6.938125 12.236875 6.87625 11.47375 6.8125 10.6875 C6.26063646 7.77563154 6.26063646 7.77563154 3.5 6.5 C1 5 1 5 0.1875 2.3125 C0.0946875 1.1678125 0.0946875 1.1678125 0 0 Z " fill="#DC743B" transform="translate(329,64)"/>
<path d="M0 0 C2.94678433 2.94678433 4.32041919 5.24093818 6 9 C6 9.66 6 10.32 6 11 C5.34 11 4.68 11 4 11 C3.67 10.34 3.34 9.68 3 9 C2.67 9.99 2.34 10.98 2 12 C0.68 11.34 -0.64 10.68 -2 10 C-1.34 6.7 -0.68 3.4 0 0 Z " fill="#E3703B" transform="translate(188,212)"/>
<path d="M0 0 C2.52588702 2.36292656 3.88820837 3.66462511 5 7 C3.02 7.99 1.04 8.98 -1 10 C-1.66 9.34 -2.32 8.68 -3 8 C-3.99 8 -4.98 8 -6 8 C-5.38125 7.236875 -4.7625 6.47375 -4.125 5.6875 C-1.94402948 3.00374191 -1.94402948 3.00374191 0 0 Z " fill="#FDEADA" transform="translate(206,129)"/>
<path d="M0 0 C3.10398978 -0.08710289 6.20766548 -0.14042309 9.3125 -0.1875 C10.19357422 -0.21263672 11.07464844 -0.23777344 11.98242188 -0.26367188 C13.25375977 -0.27817383 13.25375977 -0.27817383 14.55078125 -0.29296875 C15.72120972 -0.31653442 15.72120972 -0.31653442 16.9152832 -0.34057617 C19 0 19 0 22 3 C14.74 2.67 7.48 2.34 0 2 C0 1.34 0 0.68 0 0 Z " fill="#FEEAD8" transform="translate(240,191)"/>
<path d="M0 0 C6.87214452 3.05428645 12.26719191 7.16000629 18 12 C17.01 12.495 17.01 12.495 16 13 C12.26415094 11.52830189 12.26415094 11.52830189 11 9 C10.21625 8.855625 9.4325 8.71125 8.625 8.5625 C5.73613295 7.94345706 4.76352207 7.32042378 3 5 C3 4.34 3 3.68 3 3 C2.01 2.67 1.02 2.34 0 2 C0 1.34 0 0.68 0 0 Z " fill="#DB7641" transform="translate(304,45)"/>
<path d="M0 0 C0.33 0.66 0.66 1.32 1 2 C-1.96820624 6.04755397 -3.61864269 8.12372854 -8.625 9.125 C-9.44226563 9.29257812 -10.25953125 9.46015625 -11.1015625 9.6328125 C-12.04128906 9.81457031 -12.04128906 9.81457031 -13 10 C-9.11973109 5.75595588 -4.95745654 2.89082453 0 0 Z " fill="#E0743E" transform="translate(97,44)"/>
<path d="M0 0 C-0.1875 2.375 -0.1875 2.375 -1 5 C-3.25 6.0625 -3.25 6.0625 -6 7 C-6.845625 7.721875 -7.69125 8.44375 -8.5625 9.1875 C-9.7690625 10.0846875 -9.7690625 10.0846875 -11 11 C-13.15234375 10.61328125 -13.15234375 10.61328125 -15 10 C-12.87941855 8.32742872 -10.75395924 6.66184582 -8.625 5 C-8.02171875 4.52304687 -7.4184375 4.04609375 -6.796875 3.5546875 C-2.2265625 0 -2.2265625 0 0 0 Z " fill="#FDE5D3" transform="translate(325,342)"/>
<path d="M0 0 C0.625 1.8125 0.625 1.8125 1 4 C0.01 5.485 0.01 5.485 -1 7 C-1.99 7 -2.98 7 -4 7 C-4.226875 7.639375 -4.45375 8.27875 -4.6875 8.9375 C-6 11 -6 11 -8.625 11.75 C-9.40875 11.8325 -10.1925 11.915 -11 12 C-7.49102731 7.81576108 -3.91939465 3.80411834 0 0 Z " fill="#D77E4A" transform="translate(293,319)"/>
<path d="M0 0 C-3.97598346 3.123987 -7.10300988 5.24948382 -12.2578125 5.265625 C-13.44310547 5.26949219 -13.44310547 5.26949219 -14.65234375 5.2734375 C-15.46832031 5.26570313 -16.28429687 5.25796875 -17.125 5.25 C-18.36056641 5.26160156 -18.36056641 5.26160156 -19.62109375 5.2734375 C-20.40871094 5.27085937 -21.19632813 5.26828125 -22.0078125 5.265625 C-22.72598145 5.26336914 -23.44415039 5.26111328 -24.18408203 5.25878906 C-26 5 -26 5 -28 3 C-21.73 3 -15.46 3 -9 3 C-8.67 2.34 -8.34 1.68 -8 1 C-4.99434913 -0.96921954 -3.38048354 -1.20731555 0 0 Z " fill="#FCEAD2" transform="translate(168,257)"/>
<path d="M0 0 C5.37765849 1.15988712 8.653086 2.33460473 12 7 C12.40608255 9.80613457 12.24218078 12.14226679 12 15 C11.34 14.01 10.68 13.02 10 12 C6.92485324 7.72115294 3.88729243 3.58826993 0 0 Z " fill="#DB7A4C" transform="translate(264,214)"/>
<path d="M0 0 C0.144375 0.598125 0.28875 1.19625 0.4375 1.8125 C0.8872439 3.56150404 1.42892341 5.28677023 2 7 C2.99 7 3.98 7 5 7 C6.9249647 8.82193842 8.37535531 10.89235283 10 13 C5.84848662 11.55797524 2.70021555 9.4989562 -0.8125 6.875 C-1.78832031 6.15054688 -2.76414063 5.42609375 -3.76953125 4.6796875 C-4.87361328 3.84824219 -4.87361328 3.84824219 -6 3 C-2.25 0 -2.25 0 0 0 Z " fill="#D97E50" transform="translate(224,140)"/>
<path d="M0 0 C-1.875 4.875 -1.875 4.875 -3 6 C-4.66617115 6.04063832 -6.33388095 6.042721 -8 6 C-8 5.34 -8 4.68 -8 4 C-9.65 4 -11.3 4 -13 4 C-8.54341778 1.68917959 -5.09639729 0 0 0 Z " fill="#DE713A" transform="translate(248,351)"/>
<path d="M0 0 C1 2 1 2 0.328125 4.0234375 C-3.25931131 11.84820801 -3.25931131 11.84820801 -6 15 C-6.9765625 8.9453125 -6.9765625 8.9453125 -7 7 C-6.34 6.34 -5.68 5.68 -5 5 C-4.01 5 -3.02 5 -2 5 C-1.34 3.35 -0.68 1.7 0 0 Z " fill="#DB7038" transform="translate(293,246)"/>
<path d="M0 0 C1.66066101 3.06861273 2.70177275 6.07564723 3.625 9.4375 C3.88539063 10.36433594 4.14578125 11.29117188 4.4140625 12.24609375 C4.98381204 14.92391659 5.10889863 17.27258425 5 20 C4.34 20 3.68 20 3 20 C2.67 18.35 2.34 16.7 2 15 C1.67 15 1.34 15 1 15 C0.15318867 9.91913204 -0.09038099 5.15171623 0 0 Z " fill="#DC7947" transform="translate(380,140)"/>
<path d="M0 0 C0 0.66 0 1.32 0 2 C-5.15946865 3.7041678 -9.4425333 4.22225605 -14.9375 4.125 C-15.62134766 4.11597656 -16.30519531 4.10695313 -17.00976562 4.09765625 C-18.67333287 4.07438958 -20.33671631 4.03853167 -22 4 C-22 3.67 -22 3.34 -22 3 C-19.08397391 2.49599549 -16.16727908 1.99665334 -13.25 1.5 C-12.425 1.35691406 -11.6 1.21382813 -10.75 1.06640625 C-9.95078125 0.93105469 -9.1515625 0.79570312 -8.328125 0.65625 C-7.5949707 0.53056641 -6.86181641 0.40488281 -6.10644531 0.27539062 C-4 0 -4 0 0 0 Z " fill="#DB7A44" transform="translate(234,355)"/>
<path d="M0 0 C-0.33 1.32 -0.66 2.64 -1 4 C-2.98 4.33 -4.96 4.66 -7 5 C-7 5.66 -7 6.32 -7 7 C-13.27 7 -19.54 7 -26 7 C-26 6.67 -26 6.34 -26 6 C-24.9378125 5.98582031 -23.875625 5.97164063 -22.78125 5.95703125 C-14.71144367 5.72720103 -6.40680171 0 0 0 Z " fill="#E18659" transform="translate(170,256)"/>
<path d="M0 0 C1.17114775 2.85001852 1.05939414 3.85668377 -0.14453125 6.76171875 C-0.69496094 7.72722656 -1.24539062 8.69273437 -1.8125 9.6875 C-2.35519531 10.66074219 -2.89789063 11.63398438 -3.45703125 12.63671875 C-5 15 -5 15 -7 16 C-6.09531903 9.16763326 -4.92107966 4.92107966 0 0 Z " fill="#D67543" transform="translate(193,248)"/>
<path d="M0 0 C-0.99 1.485 -0.99 1.485 -2 3 C-2 3.66 -2 4.32 -2 5 C-1.01 5 -0.02 5 1 5 C1 5.66 1 6.32 1 7 C1.66 7 2.32 7 3 7 C3.33 8.65 3.66 10.3 4 12 C-0.56048012 8.38748484 -4.01665146 5.01202555 -7 0 C-3.86650268 -1.04449911 -3.01031744 -0.93423645 0 0 Z " fill="#DD7138" transform="translate(214,130)"/>
<path d="M0 0 C1.75 1.5625 1.75 1.5625 3 3 C-0.10549815 4.03516605 -1.67394144 3.78493563 -4.81640625 3.2578125 C-9.18832858 2.74162847 -13.60470713 2.9284672 -18 3 C-18 2.67 -18 2.34 -18 2 C-15.75256955 1.46818825 -13.50192898 0.94992874 -11.25 0.4375 C-9.99703125 0.14746094 -8.7440625 -0.14257812 -7.453125 -0.44140625 C-4.39056919 -0.93681969 -2.80814193 -1.16564382 0 0 Z " fill="#FAE4D2" transform="translate(255,379)"/>
<path d="M0 0 C1.32 0.33 2.64 0.66 4 1 C1.35344654 5.21488144 -1.37015015 8.54721599 -5 12 C-5.928125 12.928125 -6.85625 13.85625 -7.8125 14.8125 C-8.534375 15.534375 -9.25625 16.25625 -10 17 C-10 16.01 -10 15.02 -10 14 C-9.34 13.67 -8.68 13.34 -8 13 C-7.54625 12.195625 -7.0925 11.39125 -6.625 10.5625 C-5 8 -5 8 -2.875 7.0625 C-2.25625 6.711875 -1.6375 6.36125 -1 6 C-0.18415432 2.94091587 -0.18415432 2.94091587 0 0 Z " fill="#DA7844" transform="translate(354,305)"/>
<path d="M0 0 C0.33 0 0.66 0 1 0 C1.02696365 1.79158489 1.04637917 3.58328473 1.0625 5.375 C1.07410156 6.37273437 1.08570313 7.37046875 1.09765625 8.3984375 C1 11 1 11 0 13 C-0.23358798 15.56081642 -0.38163069 18.12005034 -0.5234375 20.6875 C-1 23 -1 23 -4 25 C-3.24010799 19.5036937 -2.35894561 14.03385883 -1.4375 8.5625 C-1.29892578 7.73556641 -1.16035156 6.90863281 -1.01757812 6.05664062 C-0.67913211 4.03763511 -0.33967107 2.01879978 0 0 Z " fill="#FCE2CD" transform="translate(388,224)"/>
<path d="M0 0 C1.95825873 -0.02694851 3.91662226 -0.04637218 5.875 -0.0625 C6.96554688 -0.07410156 8.05609375 -0.08570312 9.1796875 -0.09765625 C12 0 12 0 14 1 C16.26765601 1.23235944 18.53361414 1.38101703 20.80859375 1.5234375 C23.39925484 2.08682547 24.32979577 2.99145857 26 5 C25.22398437 4.86722656 24.44796875 4.73445313 23.6484375 4.59765625 C18.98040922 3.83297924 14.30347704 3.13493345 9.625 2.4375 C8.69816406 2.29892578 7.77132812 2.16035156 6.81640625 2.01757812 C4.54433714 1.67793893 2.27220053 1.33875865 0 1 C0 0.67 0 0.34 0 0 Z " fill="#F9DAC1" transform="translate(226,17)"/>
<path d="M0 0 C1.65 0 3.3 0 5 0 C2.17015973 2.9746228 -0.76065023 5.39997658 -4.125 7.75 C-5.42824219 8.67039062 -5.42824219 8.67039062 -6.7578125 9.609375 C-9 11 -9 11 -11 11 C-11 10.34 -11 9.68 -11 9 C-9.68 8.67 -8.36 8.34 -7 8 C-7 7.01 -7 6.02 -7 5 C-5.35 4.67 -3.7 4.34 -2 4 C-2 3.34 -2 2.68 -2 2 C-1.34 2 -0.68 2 0 2 C0 1.34 0 0.68 0 0 Z " fill="#D97746" transform="translate(316,344)"/>
<path d="M0 0 C3.11673969 1.55836984 3.41177748 4.12335659 4.625 7.3125 C5.07101563 8.46363281 5.51703125 9.61476563 5.9765625 10.80078125 C7 14 7 14 7 18 C4.99006295 15.99006295 4.10059081 14.40788768 2.875 11.875 C2.52179687 11.15054687 2.16859375 10.42609375 1.8046875 9.6796875 C1.53914063 9.12539063 1.27359375 8.57109375 1 8 C0.67 8 0.34 8 0 8 C0 5.36 0 2.72 0 0 Z " fill="#FCE5CF" transform="translate(23,269)"/>
<path d="M0 0 C0.33 0.99 0.66 1.98 1 3 C-5.07792208 9.24675325 -5.07792208 9.24675325 -8 11 C-8.99 10.67 -9.98 10.34 -11 10 C-10.0479279 8.99403703 -9.08812654 7.99538437 -8.125 7 C-7.32449219 6.1646875 -7.32449219 6.1646875 -6.5078125 5.3125 C-5 4 -5 4 -3 4 C-3 3.34 -3 2.68 -3 2 C-2.01 1.34 -1.02 0.68 0 0 Z " fill="#FCE8DB" transform="translate(336,331)"/>
<path d="M0 0 C0.33 0.66 0.66 1.32 1 2 C0.2578125 3.875 0.2578125 3.875 -0.875 6 C-1.42800781 7.051875 -1.42800781 7.051875 -1.9921875 8.125 C-2.32476562 8.74375 -2.65734375 9.3625 -3 10 C-3.33 10.66 -3.66 11.32 -4 12 C-5.32 12 -6.64 12 -8 12 C-8.33 12.99 -8.66 13.98 -9 15 C-9.66 14.67 -10.32 14.34 -11 14 C-10.37351562 13.24074219 -9.74703125 12.48148437 -9.1015625 11.69921875 C-8.28429687 10.70535156 -7.46703125 9.71148437 -6.625 8.6875 C-5.81289063 7.70136719 -5.00078125 6.71523438 -4.1640625 5.69921875 C-1.94395043 3.01091621 -1.94395043 3.01091621 0 0 Z " fill="#DE7644" transform="translate(305,304)"/>
<path d="M0 0 C0.33 0 0.66 0 1 0 C1.31246933 5.9369172 0.92709439 9.77304573 -2 15 C-4.1875 16.4375 -4.1875 16.4375 -6 17 C-5.57074219 15.95779297 -5.57074219 15.95779297 -5.1328125 14.89453125 C-3.94269408 11.8535735 -2.89736547 8.78867525 -1.875 5.6875 C-1.52179688 4.61886719 -1.16859375 3.55023438 -0.8046875 2.44921875 C-0.53914063 1.64097656 -0.27359375 0.83273438 0 0 Z " fill="#FCE4CB" transform="translate(294,244)"/>
<path d="M0 0 C0.66 0.33 1.32 0.66 2 1 C1.67 1.66 1.34 2.32 1 3 C0.34 3 -0.32 3 -1 3 C-1 3.99 -1 4.98 -1 6 C-1.66 6 -2.32 6 -3 6 C-3.33 6.66 -3.66 7.32 -4 8 C-6.31 7.67 -8.62 7.34 -11 7 C-7.53252172 4.22601737 -3.93597489 2.04087587 0 0 Z " fill="#FAF0E5" transform="translate(182,151)"/>
<path d="M0 0 C0.886875 0.53625 1.77375 1.0725 2.6875 1.625 C2.3575 2.945 2.0275 4.265 1.6875 5.625 C-2.22461733 4.46914715 -5.1870041 3.26965038 -8.3125 0.625 C-4.8011922 -1.33720142 -3.82270308 -1.58678241 0 0 Z " fill="#EF652E" transform="translate(245.3125,154.375)"/>
<path d="M0 0 C1.65 0 3.3 0 5 0 C5.2475 0.94875 5.495 1.8975 5.75 2.875 C6.661178 6.08838835 6.661178 6.08838835 9.0625 7.1875 C9.701875 7.455625 10.34125 7.72375 11 8 C11.33 8.99 11.66 9.98 12 11 C12.66 11 13.32 11 14 11 C13.67 11.66 13.34 12.32 13 13 C8.18876004 8.96476648 3.86757281 4.95532767 0 0 Z " fill="#D97A4A" transform="translate(59,325)"/>
<path d="M0 0 C0.99 0.66 1.98 1.32 3 2 C-1.62 5.3 -6.24 8.6 -11 12 C-11.33 11.01 -11.66 10.02 -12 9 C-10.35 8.67 -8.7 8.34 -7 8 C-7 6.68 -7 5.36 -7 4 C-5.5459375 3.566875 -5.5459375 3.566875 -4.0625 3.125 C-0.89335797 2.35785318 -0.89335797 2.35785318 0 0 Z " fill="#FDE5D1" transform="translate(280,328)"/>
<path d="M0 0 C3.465 1.98 3.465 1.98 7 4 C7 4.33 7 4.66 7 5 C5.4221875 5.2165625 5.4221875 5.2165625 3.8125 5.4375 C0.84539451 5.87526966 -2.06794366 6.37804866 -5 7 C-3.70700306 4.11562221 -2.34058637 2.12780579 0 0 Z " fill="#E56E37" transform="translate(131,255)"/>
<path d="M0 0 C4.01133215 0.60534649 7.0684076 1.8774394 10.625 3.8125 C11.56601562 4.31394531 12.50703125 4.81539062 13.4765625 5.33203125 C15.99447763 6.99634977 17.37432001 8.48510579 19 11 C17.68 10.67 16.36 10.34 15 10 C15 9.34 15 8.68 15 8 C14.34 7.938125 13.68 7.87625 13 7.8125 C8.03079932 6.46667481 3.63503558 3.63503558 0 0 Z " fill="#D77545" transform="translate(263,195)"/>
<path d="M0 0 C1.4540625 0.0309375 1.4540625 0.0309375 2.9375 0.0625 C-0.19880906 2.15337271 -2.84757349 3.0784838 -6.4375 4.1875 C-7.55898437 4.54070312 -8.68046875 4.89390625 -9.8359375 5.2578125 C-12.74900019 5.98431482 -15.08356411 6.22985595 -18.0625 6.0625 C-17.7325 5.4025 -17.4025 4.7425 -17.0625 4.0625 C-14.91715269 3.45984195 -12.7443631 2.95297375 -10.5625 2.5 C-6.83944858 1.71896856 -3.58030094 0.07306737 0 0 Z " fill="#D67442" transform="translate(141.0625,167.9375)"/>
<path d="M0 0 C4.72463088 0.46319911 8.17057052 1.09891706 12 4 C12 4.66 12 5.32 12 6 C12.99 6.33 13.98 6.66 15 7 C15 7.66 15 8.32 15 9 C11.32305352 7.62859834 8.04681411 5.96304199 4.6875 3.9375 C3.80449219 3.41027344 2.92148437 2.88304687 2.01171875 2.33984375 C1.34785156 1.89769531 0.68398438 1.45554688 0 1 C0 0.67 0 0.34 0 0 Z " fill="#FCE9D4" transform="translate(297,40)"/>
<path d="M0 0 C7.16707877 0.32577631 12.76927124 3.65443628 19 7 C15.07871478 8.3058334 13.02168909 7.38030356 9.31640625 5.59960938 C8.63449219 5.25736328 7.95257813 4.91511719 7.25 4.5625 C6.55261719 4.22412109 5.85523437 3.88574219 5.13671875 3.53710938 C3.41931879 2.70193542 1.70894262 1.85234576 0 1 C0 0.67 0 0.34 0 0 Z " fill="#D88352" transform="translate(111,364)"/>
<path d="M0 0 C0.66 0 1.32 0 2 0 C3.4606285 2.64738916 4 3.89448334 4 7 C5.32 7 6.64 7 8 7 C8 10.63 8 14.26 8 18 C5.84575398 14.76863097 4.37764626 11.43389904 2.875 7.875 C2.59785156 7.22917969 2.32070313 6.58335937 2.03515625 5.91796875 C0 1.13585283 0 1.13585283 0 0 Z " fill="#DB7642" transform="translate(22,265)"/>
<path d="M0 0 C0.625 1.8125 0.625 1.8125 1 4 C0.01 5.485 0.01 5.485 -1 7 C-1.99 7 -2.98 7 -4 7 C-4 8.65 -4 10.3 -4 12 C-5.32 12.33 -6.64 12.66 -8 13 C-7.2368139 11.39218107 -6.46412942 9.78886862 -5.6875 8.1875 C-5.25824219 7.29417969 -4.82898438 6.40085938 -4.38671875 5.48046875 C-3.11778211 3.21068067 -1.93443102 1.70751829 0 0 Z " fill="#D5743F" transform="translate(117,207)"/>
<path d="M0 0 C3.58707329 3.38779144 6.49689539 6.73545141 9 11 C9 11.99 9 12.98 9 14 C8.01 14 7.02 14 6 14 C6 12.35 6 10.7 6 9 C5.34 9 4.68 9 4 9 C1.3879169 7.11930017 1.00531495 6.02464205 0.3125 2.8125 C0.209375 1.884375 0.10625 0.95625 0 0 Z " fill="#D67540" transform="translate(282,206)"/>
<path d="M0 0 C2.97 0.495 2.97 0.495 6 1 C3.38485683 3.12038635 0.80362384 5.13091744 -2 7 C-4.1875 6.625 -4.1875 6.625 -6 6 C-5.34 6 -4.68 6 -4 6 C-4.33 5.01 -4.66 4.02 -5 3 C-3.35 2.67 -1.7 2.34 0 2 C0 1.34 0 0.68 0 0 Z " fill="#DF733C" transform="translate(181,147)"/>
<path d="M0 0 C0.66 0.33 1.32 0.66 2 1 C1.21625 1.5775 0.4325 2.155 -0.375 2.75 C-3.06283724 4.70228364 -3.06283724 4.70228364 -3.8125 7.03125 C-5 9 -5 9 -7.6015625 10.046875 C-8.59929687 10.27890625 -9.59703125 10.5109375 -10.625 10.75 C-12.12933594 11.11351562 -12.12933594 11.11351562 -13.6640625 11.484375 C-14.43492187 11.65453125 -15.20578125 11.8246875 -16 12 C-13.48068381 9.20740206 -10.62828625 7.40465584 -7.4375 5.4375 C-3.48604104 3.01277951 -3.48604104 3.01277951 0 0 Z " fill="#D77D4A" transform="translate(280,331)"/>
<path d="M0 0 C0.33 0 0.66 0 1 0 C1.55353075 12.66970387 1.55353075 12.66970387 -2 18 C-2.66 18 -3.32 18 -4 18 C-2.68 12.06 -1.36 6.12 0 0 Z " fill="#DC7C4E" transform="translate(322,260)"/>
<path d="M0 0 C4.69159716 3.38772897 9.0299782 6.78185183 13 11 C11.35 11 9.7 11 8 11 C7.67 10.01 7.34 9.02 7 8 C4.62374655 6.81608777 4.62374655 6.81608777 2 6 C1.01 5.67 0.02 5.34 -1 5 C-0.34 5 0.32 5 1 5 C0.67 3.35 0.34 1.7 0 0 Z " fill="#FCEADA" transform="translate(213,138)"/>
<path d="M0 0 C3.375 -0.125 3.375 -0.125 7 0 C7.66 0.66 8.32 1.32 9 2 C11.65537372 2.56520003 14.29144713 2.73788198 17 3 C17.33 3.99 17.66 4.98 18 6 C13.68068613 5.38388165 9.74791225 4.35761422 5.625 2.9375 C4.56539063 2.57527344 3.50578125 2.21304687 2.4140625 1.83984375 C1.61742187 1.56269531 0.82078125 1.28554688 0 1 C0 0.67 0 0.34 0 0 Z " fill="#FAE1CE" transform="translate(254,22)"/>
<path d="M0 0 C-5.91401451 3.18446935 -12.3048892 4.34333902 -19 4 C-13.86397674 -1.13602326 -6.74750628 -0.2161123 0 0 Z " fill="#FDE7D1" transform="translate(239,353)"/>
<path d="M0 0 C0.66 0 1.32 0 2 0 C0.41039668 6.23440168 -1.27600901 12.16287645 -4 18 C-4.33 18 -4.66 18 -5 18 C-5.37261821 10.42342978 -5.37261821 10.42342978 -3.625 8.4375 C-3.08875 7.963125 -2.5525 7.48875 -2 7 C-1.25613932 4.69011685 -0.57809297 2.35684056 0 0 Z " fill="#D9733F" transform="translate(379,257)"/>
<path d="M0 0 C2.45840605 -0.02691685 4.91651882 -0.04679802 7.375 -0.0625 C8.07367188 -0.07087891 8.77234375 -0.07925781 9.4921875 -0.08789062 C14.7734375 -0.11328125 14.7734375 -0.11328125 17 1 C17 1.66 17 2.32 17 3 C17.66 3 18.32 3 19 3 C19 3.66 19 4.32 19 5 C18.07380859 4.69255859 18.07380859 4.69255859 17.12890625 4.37890625 C11.37289724 2.54784707 6.02021684 1.48550136 0 1 C0 0.67 0 0.34 0 0 Z " fill="#D5855B" transform="translate(148,210)"/>
<path d="M0 0 C6.31121503 1.0992895 12.06338584 2.58137942 18 5 C18 5.33 18 5.66 18 6 C15.36 6 12.72 6 10 6 C10 5.34 10 4.68 10 4 C8.906875 3.896875 7.81375 3.79375 6.6875 3.6875 C2.94024845 2.98885988 2.34037259 2.68602762 0 0 Z " fill="#FDE6CE" transform="translate(280,173)"/>
<path d="M0 0 C0.93423645 3.01031744 1.04449911 3.86650268 0 7 C-3 9 -3 9 -6 9 C-6 9.66 -6 10.32 -6 11 C-6.66 10.67 -7.32 10.34 -8 10 C-7.21654285 8.82780457 -6.42297164 7.66236332 -5.625 6.5 C-5.18414062 5.8503125 -4.74328125 5.200625 -4.2890625 4.53125 C-3.86367188 4.0259375 -3.43828125 3.520625 -3 3 C-2.34 3 -1.68 3 -1 3 C-0.67 2.01 -0.34 1.02 0 0 Z " fill="#FBE7D2" transform="translate(355,309)"/>
<path d="M0 0 C0.33 0 0.66 0 1 0 C0.67 3.96 0.34 7.92 0 12 C-0.99 12.33 -1.98 12.66 -3 13 C-3.73323796 15.01508358 -3.73323796 15.01508358 -4 17 C-5 15 -5 15 -4.00390625 11.5234375 C-3.53099953 10.13802064 -3.05018356 8.75528453 -2.5625 7.375 C-2.31951172 6.66859375 -2.07652344 5.9621875 -1.82617188 5.234375 C-1.22412795 3.48726713 -0.61291983 1.74332214 0 0 Z " fill="#FBE2CA" transform="translate(383,250)"/>
<path d="M0 0 C0.99 0.495 0.99 0.495 2 1 C3.21774968 5.29794004 4.17672405 9.60919494 5 14 C5.66 14 6.32 14 7 14 C7 15.65 7 17.3 7 19 C2.13173447 12.97262363 0.48944213 7.59479161 0 0 Z " fill="#D7784F" transform="translate(106,241)"/>
<path d="M0 0 C0.66 0 1.32 0 2 0 C2.103125 0.598125 2.20625 1.19625 2.3125 1.8125 C2.82484936 4.07883283 2.82484936 4.07883283 4.5625 5.4375 C6 7 6 7 6.1875 9.6875 C6.125625 10.450625 6.06375 11.21375 6 12 C5.01 12.495 5.01 12.495 4 13 C3.32694982 11.39850114 2.66177773 9.79368971 2 8.1875 C1.62875 7.29417969 1.2575 6.40085938 0.875 5.48046875 C0 3 0 3 0 0 Z " fill="#D7733B" transform="translate(206,246)"/>
<path d="M0 0 C3.375 4.5 3.375 4.5 4 8 C2.68 8.33 1.36 8.66 0 9 C0 9.66 0 10.32 0 11 C-0.66 11 -1.32 11 -2 11 C-1.34 7.37 -0.68 3.74 0 0 Z " fill="#E46D38" transform="translate(370,117)"/>
<path d="M0 0 C1.65 0.33 3.3 0.66 5 1 C1.56638098 4.63559661 -1.7973607 7.36113346 -6 10 C-5.8125 8.1875 -5.8125 8.1875 -5 6 C-3.34051852 4.98812105 -1.67419438 3.9873454 0 3 C0 2.01 0 1.02 0 0 Z " fill="#FBE8D1" transform="translate(81,50)"/>
<path d="M0 0 C4.71652565 -0.22937511 8.3974273 0.53793545 12.875 2 C14.60363281 2.556875 14.60363281 2.556875 16.3671875 3.125 C17.23601562 3.41375 18.10484375 3.7025 19 4 C15.57838282 5.12977926 13.02348831 4.88887425 9.5 4.25 C8.09234375 4.01023437 8.09234375 4.01023437 6.65625 3.765625 C3.85482158 2.95815446 2.19610558 1.88533593 0 0 Z " fill="#DC7C47" transform="translate(240,20)"/>
<path d="M0 0 C0.66 0 1.32 0 2 0 C1.49452628 4.08055151 -0.50088882 5.66272295 -3.5625 8.25 C-4.38878906 8.95640625 -5.21507812 9.6628125 -6.06640625 10.390625 C-6.70449219 10.92171875 -7.34257812 11.4528125 -8 12 C-8.66 11.34 -9.32 10.68 -10 10 C-9.34 10 -8.68 10 -8 10 C-8 9.34 -8 8.68 -8 8 C-7.38125 7.731875 -6.7625 7.46375 -6.125 7.1875 C-3.7004767 6.04443152 -3.7004767 6.04443152 -2 3 C-1.34 3 -0.68 3 0 3 C0 2.01 0 1.02 0 0 Z " fill="#DC7544" transform="translate(330,332)"/>
<path d="M0 0 C1.12894876 0.93274109 2.25300876 1.87140122 3.375 2.8125 C4.00148438 3.33457031 4.62796875 3.85664063 5.2734375 4.39453125 C7 6 7 6 9 9 C4.25 8.125 4.25 8.125 2 7 C2 6.34 2 5.68 2 5 C1.34 5 0.68 5 0 5 C0 3.35 0 1.7 0 0 Z " fill="#FCEDDE" transform="translate(57,324)"/>
<path d="M0 0 C0.8353125 0.37125 0.8353125 0.37125 1.6875 0.75 C1.0275 0.75 0.3675 0.75 -0.3125 0.75 C-0.3125 1.41 -0.3125 2.07 -0.3125 2.75 C-1.625 4.1875 -1.625 4.1875 -3.3125 5.75 C-3.869375 6.306875 -4.42625 6.86375 -5 7.4375 C-5.433125 7.870625 -5.86625 8.30375 -6.3125 8.75 C-6.6425 7.1 -6.9725 5.45 -7.3125 3.75 C-2.88173077 -0.31153846 -2.88173077 -0.31153846 0 0 Z " fill="#E0733D" transform="translate(132.3125,216.25)"/>
<path d="M0 0 C0.66 0.66 1.32 1.32 2 2 C-1.96 7.94 -1.96 7.94 -6 14 C-6.66 13.01 -7.32 12.02 -8 11 C-7.01 10.67 -6.02 10.34 -5 10 C-4.29373761 8.01363702 -3.63106429 6.01151741 -3 4 C-1.375 1.625 -1.375 1.625 0 0 Z " fill="#FCE8D4" transform="translate(45,88)"/>
<path d="M0 0 C0 0.66 0 1.32 0 2 C-5.57067277 3.59162079 -10.21101581 4.20674944 -16 4 C-10.99926683 1.19958943 -5.74548584 -0.34821126 0 0 Z " fill="#E07748" transform="translate(160,20)"/>
<path d="M0 0 C0.6875 1.6875 0.6875 1.6875 1 4 C-0.25 6.75 -0.25 6.75 -2 9 C-2.99 9 -3.98 9 -5 9 C-5 8.34 -5 7.68 -5 7 C-7.97 7 -10.94 7 -14 7 C-14 6.67 -14 6.34 -14 6 C-9.71 6 -5.42 6 -1 6 C-0.67 4.02 -0.34 2.04 0 0 Z " fill="#E6824E" transform="translate(208,218)"/>
<path d="M0 0 C0 0.66 0 1.32 0 2 C-0.99 2.33 -1.98 2.66 -3 3 C-5.64296752 5.33203016 -6.87224426 6.61673278 -8 10 C-9.32 9.67 -10.64 9.34 -12 9 C-11.34 8.01 -10.68 7.02 -10 6 C-9.34 6 -8.68 6 -8 6 C-8 5.34 -8 4.68 -8 4 C-2.58823529 0 -2.58823529 0 0 0 Z " fill="#FCE2C9" transform="translate(140,213)"/>
<path d="M0 0 C0.66 2.64 1.32 5.28 2 8 C1.01 7.67 0.02 7.34 -1 7 C-1 6.34 -1 5.68 -1 5 C-1.99 5 -2.98 5 -4 5 C-4.33 3.68 -4.66 2.36 -5 1 C-3 0 -3 0 0 0 Z " fill="#EE6618" transform="translate(183,216)"/>
<path d="M0 0 C0 0.99 0 1.98 0 3 C-4.0188515 4.81242323 -7.61110675 6.33501617 -12 7 C-8.8380314 3.47318887 -4.98182478 0 0 0 Z " fill="#DA7748" transform="translate(134,196)"/>
<path d="M0 0 C-0.66 0 -1.32 0 -2 0 C-2 0.66 -2 1.32 -2 2 C-0.68 2.33 0.64 2.66 2 3 C2 3.66 2 4.32 2 5 C2.66 5 3.32 5 4 5 C3.67 5.66 3.34 6.32 3 7 C-0.63 5.02 -4.26 3.04 -8 1 C-8 0.67 -8 0.34 -8 0 C-4.71303767 -0.79953138 -3.28976808 -1.09658936 0 0 Z " fill="#FDEBDA" transform="translate(176,195)"/>
<path d="M0 0 C0.61875 0.350625 1.2375 0.70125 1.875 1.0625 C2.57625 1.371875 3.2775 1.68125 4 2 C4.66 1.67 5.32 1.34 6 1 C6.33 4.3 6.66 7.6 7 11 C4.04250209 7.53258866 1.92151848 4.13126473 0 0 Z " fill="#FCEADB" transform="translate(362,102)"/>
<path d="M0 0 C1.32 0.33 2.64 0.66 4 1 C1.03 3.97 -1.94 6.94 -5 10 C-5.33 8.68 -5.66 7.36 -6 6 C-5.38125 5.938125 -4.7625 5.87625 -4.125 5.8125 C-1.72238859 5.171081 -1.72238859 5.171081 -0.75 2.4375 C-0.5025 1.633125 -0.255 0.82875 0 0 Z " fill="#FEE7D3" transform="translate(60,70)"/>
<path d="M0 0 C5.63470383 -0.5497272 8.38987758 1.04952165 13 4 C13 4.66 13 5.32 13 6 C3.40546697 3.10933941 3.40546697 3.10933941 0 0 Z " fill="#FCE3CE" transform="translate(272,28)"/>
<path d="M0 0 C3.79039882 0.52644428 6.21815268 1.31750437 9 4 C9.75 6.1875 9.75 6.1875 10 8 C6.05205855 6.32971708 3.18203882 3.8204435 0 1 C0 0.67 0 0.34 0 0 Z " fill="#FBE3D0" transform="translate(117,328)"/>
<path d="M0 0 C1.32 0 2.64 0 4 0 C7 4.07142857 7 4.07142857 7 7 C4.69 6.34 2.38 5.68 0 5 C0 3.35 0 1.7 0 0 Z " fill="#DF6F36" transform="translate(288,170)"/>
<path d="M0 0 C0.99 0 1.98 0 3 0 C3 0.66 3 1.32 3 2 C4.98 2 6.96 2 9 2 C7.02579865 4.52259061 6.03254358 4.9929808 2.8125 5.6875 C1.4203125 5.8421875 1.4203125 5.8421875 0 6 C0.66 5.67 1.32 5.34 2 5 C2 4.34 2 3.68 2 3 C1.34 2.67 0.68 2.34 0 2 C0 1.34 0 0.68 0 0 Z " fill="#E26C33" transform="translate(144,162)"/>
<path d="M0 0 C1 2 1 2 0.25 4.8125 C-0.92594682 7.81116438 -2.14356845 10.3700553 -4 13 C-4.66 13 -5.32 13 -6 13 C-4.58707905 8.1725201 -2.57025846 4.2837641 0 0 Z " fill="#DB7D50" transform="translate(33,111)"/>
<path d="M0 0 C3.3125 0.625 3.3125 0.625 7 2 C8.8125 5 8.8125 5 10 8 C10.66 8.66 11.32 9.32 12 10 C9 10 9 10 7.5 8.57421875 C6.7575 7.64029297 6.7575 7.64029297 6 6.6875 C4.09821992 4.32513256 2.18124184 2.10983214 0 0 Z " fill="#FBE1CC" transform="translate(336,70)"/>
<path d="M0 0 C-1.62249941 0.83819158 -3.24808497 1.6704116 -4.875 2.5 C-6.23238281 3.19609375 -6.23238281 3.19609375 -7.6171875 3.90625 C-10 5 -10 5 -12 5 C-12 4.34 -12 3.68 -12 3 C-11.34 3 -10.68 3 -10 3 C-9.67 2.01 -9.34 1.02 -9 0 C-5.5657338 -0.85856655 -3.38317487 -0.97591583 0 0 Z " fill="#FBEBD8" transform="translate(121,32)"/>
<path d="M0 0 C0.103125 0.61875 0.20625 1.2375 0.3125 1.875 C0.87525373 4.36526484 0.87525373 4.36526484 4 6 C-0.3177458 5.49202991 -4.03302114 4.80317221 -8 3 C-8 2.67 -8 2.34 -8 2 C-2.25 0 -2.25 0 0 0 Z " fill="#DE7D47" transform="translate(144,372)"/>
<path d="M0 0 C0.99 0.33 1.98 0.66 3 1 C0.36 3.64 -2.28 6.28 -5 9 C-5.33 7.68 -5.66 6.36 -6 5 C-1.60546875 0.99609375 -1.60546875 0.99609375 0 0 Z " fill="#FDECDA" transform="translate(289,320)"/>
<path d="M0 0 C1.60080151 4.00200378 0.29279692 7.04556236 -1 11 C-1.66 11 -2.32 11 -3 11 C-2.67 12.32 -2.34 13.64 -2 15 C-2.99 15.495 -2.99 15.495 -4 16 C-4.66 15.34 -5.32 14.68 -6 14 C-5.73445313 13.49210937 -5.46890625 12.98421875 -5.1953125 12.4609375 C-3.10022511 8.37781098 -1.32380814 4.4126938 0 0 Z " fill="#DA7B49" transform="translate(316,281)"/>
<path d="M0 0 C1.05543251 3.18769143 0.97424908 4.94786631 -0.25 8.0625 C-0.62898438 9.06990234 -0.62898438 9.06990234 -1.015625 10.09765625 C-2.0785986 12.15189491 -3.29068058 13.45873165 -5 15 C-1.92482916 4.44191344 -1.92482916 4.44191344 0 0 Z " fill="#DC7F51" transform="translate(26,124)"/>
<path d="M0 0 C2.0625 0.4375 2.0625 0.4375 4 1 C3.01 1.33 2.02 1.66 1 2 C1 3.32 1 4.64 1 6 C-2.65316671 4.75023244 -3.78065836 4.32901247 -6 1 C-4.7934375 1.0309375 -4.7934375 1.0309375 -3.5625 1.0625 C-1.06645115 1.29633621 -1.06645115 1.29633621 0 0 Z " fill="#FDF0E0" transform="translate(318,48)"/>
<path d="M0 0 C1.98 0.66 3.96 1.32 6 2 C6 2.66 6 3.32 6 4 C6.66 4 7.32 4 8 4 C9.625 5.5 9.625 5.5 11 7 C10.67 7.66 10.34 8.32 10 9 C8.51726301 7.87970983 7.03891114 6.75361382 5.5625 5.625 C4.32693359 4.68527344 4.32693359 4.68527344 3.06640625 3.7265625 C1 2 1 2 0 0 Z " fill="#DA7642" transform="translate(73,338)"/>
<path d="M0 0 C0 3.19610552 -0.54671542 4.41717626 -2 7.1875 C-2.37125 7.90292969 -2.7425 8.61835938 -3.125 9.35546875 C-3.41375 9.89816406 -3.7025 10.44085938 -4 11 C-4.33 11 -4.66 11 -5 11 C-5 8.69 -5 6.38 -5 4 C-4.01 3.67 -3.02 3.34 -2 3 C-2 2.34 -2 1.68 -2 1 C-1.34 0.67 -0.68 0.34 0 0 Z " fill="#FCE3D1" transform="translate(313,288)"/>
<path d="M0 0 C-3.465 2.97 -3.465 2.97 -7 6 C-8 2 -8 2 -7 0 C-2.52459016 -1.26229508 -2.52459016 -1.26229508 0 0 Z " fill="#D87137" transform="translate(184,267)"/>
<path d="M0 0 C0.66 0.33 1.32 0.66 2 1 C-0.31 3.64 -2.62 6.28 -5 9 C-5.33 8.01 -5.66 7.02 -6 6 C-4 4 -2 2 0 0 Z " fill="#FDEEDB" transform="translate(271,249)"/>
<path d="M0 0 C1.19126781 3.57380342 0.7349445 5.50883302 0.0625 9.1875 C-0.13214844 10.27417969 -0.32679687 11.36085937 -0.52734375 12.48046875 C-0.68332031 13.31191406 -0.83929688 14.14335937 -1 15 C-1.33 15 -1.66 15 -2 15 C-2.9546751 11.67798868 -3.75739133 8.45453653 -4 5 C-2.125 1.875 -2.125 1.875 0 0 Z " fill="#DA6D37" transform="translate(125,225)"/>
<path d="M0 0 C2.0622048 -0.054348 4.12482816 -0.09294961 6.1875 -0.125 C7.33605469 -0.14820313 8.48460937 -0.17140625 9.66796875 -0.1953125 C12.91740372 -0.00484152 15.08660521 0.60639873 18 2 C18 2.66 18 3.32 18 4 C17.071875 3.690625 16.14375 3.38125 15.1875 3.0625 C10.22128454 1.6216844 5.13794694 1.35305964 0 1 C0 0.67 0 0.34 0 0 Z " fill="#D6875B" transform="translate(246,210)"/>
<path d="M0 0 C-0.99 1.32 -1.98 2.64 -3 4 C-5.64 3.34 -8.28 2.68 -11 2 C-11 1.67 -11 1.34 -11 1 C-3.57142857 -1.42857143 -3.57142857 -1.42857143 0 0 Z " fill="#FCEBDD" transform="translate(273,193)"/>
<path d="M0 0 C2.40072955 2.88087546 4.47291037 5.56404834 6 9 C5.01 9 4.02 9 3 9 C1.01046676 7.01046676 0.02253067 5.59565478 -1 3 C-0.67 2.01 -0.34 1.02 0 0 Z " fill="#E27041" transform="translate(362,103)"/>
<path d="M0 0 C4.46839215 -0.21278058 7.82262526 0.40861915 12 2 C12 1.34 12 0.68 12 0 C12.99 0.33 13.98 0.66 15 1 C13.5 2.625 13.5 2.625 11 4 C6.75947375 3.61604893 3.53027907 2.35351938 0 0 Z " fill="#FBF2E1" transform="translate(144,346)"/>
<path d="M0 0 C2.6875 -0.3125 2.6875 -0.3125 6 0 C8.875 2.5 8.875 2.5 11 5 C10.01 5.495 10.01 5.495 9 6 C6.8359375 5.00390625 6.8359375 5.00390625 4.375 3.5625 C3.55773437 3.08941406 2.74046875 2.61632812 1.8984375 2.12890625 C1.27195313 1.75636719 0.64546875 1.38382812 0 1 C0 0.67 0 0.34 0 0 Z " fill="#FBE6D1" transform="translate(133,340)"/>
<path d="M0 0 C0.33 0 0.66 0 1 0 C1.33 3.96 1.66 7.92 2 12 C0.68 11.01 -0.64 10.02 -2 9 C-1.34 6.03 -0.68 3.06 0 0 Z " fill="#E16A2E" transform="translate(318,278)"/>
<path d="M0 0 C0.680625 0.4125 1.36125 0.825 2.0625 1.25 C5.35191348 3.20965058 8.67160863 5.1073853 12 7 C9.05038085 8.24791579 7.96054636 7.98579669 4.875 6.875 C1.6899154 4.79777091 0.97370786 3.60271909 0 0 Z " fill="#FDEBDD" transform="translate(218,269)"/>
<path d="M0 0 C0.33 0.66 0.66 1.32 1 2 C-0.4375 4.625 -0.4375 4.625 -2 7 C-3.65 6.67 -5.3 6.34 -7 6 C-6.21625 5.38125 -5.4325 4.7625 -4.625 4.125 C-2.03162353 2.10141339 -2.03162353 2.10141339 0 0 Z " fill="#FCEAD9" transform="translate(181,269)"/>
<path d="M0 0 C0.33 0.99 0.66 1.98 1 3 C0.2575 3.6496875 0.2575 3.6496875 -0.5 4.3125 C-2.33218192 5.99740483 -2.33218192 5.99740483 -2 9 C-2.99 9.495 -2.99 9.495 -4 10 C-4.99 9.34 -5.98 8.68 -7 8 C-4.69 5.36 -2.38 2.72 0 0 Z " fill="#FBE3D5" transform="translate(189,260)"/>
<path d="M0 0 C0.33 0 0.66 0 1 0 C1.08096803 1.45742463 1.13917774 2.91612807 1.1875 4.375 C1.22230469 5.18710937 1.25710937 5.99921875 1.29296875 6.8359375 C1.19628906 7.55007813 1.09960938 8.26421875 1 9 C0.01 9.66 -0.98 10.32 -2 11 C-2.99 10.67 -3.98 10.34 -5 10 C-4.54625 9.649375 -4.0925 9.29875 -3.625 8.9375 C-1.35338666 6.22903794 -0.83201146 3.39204672 0 0 Z " fill="#FDF2EB" transform="translate(191,256)"/>
<path d="M0 0 C0.33 0.99 0.66 1.98 1 3 C-0.9375 6.1875 -0.9375 6.1875 -3 9 C-4.32 8.67 -5.64 8.34 -7 8 C-4.69 5.36 -2.38 2.72 0 0 Z " fill="#D5804D" transform="translate(273,249)"/>
<path d="M0 0 C3.3 0 6.6 0 10 0 C10 1.32 10 2.64 10 4 C6.7 3.01 3.4 2.02 0 1 C0 0.67 0 0.34 0 0 Z " fill="#DF7542" transform="translate(296,177)"/>
<path d="M0 0 C4.875 4.75 4.875 4.75 6 7 C4.02 7 2.04 7 0 7 C0 4.69 0 2.38 0 0 Z " fill="#DF7946" transform="translate(100,311)"/>
<path d="M0 0 C3.23585033 3.23585033 3.98945574 7.62097487 5 12 C2 11 2 11 0.8125 9.375 C-0.27499354 6.19617272 -0.1282071 3.33338467 0 0 Z " fill="#D77A47" transform="translate(80,272)"/>
<path d="M0 0 C1.32 0 2.64 0 4 0 C3.34 1.65 2.68 3.3 2 5 C0.35 5 -1.3 5 -3 5 C-2.67 4.01 -2.34 3.02 -2 2 C-1.34 2 -0.68 2 0 2 C0 1.34 0 0.68 0 0 Z " fill="#F8EBD5" transform="translate(108,214)"/>
<path d="M0 0 C1.27208622 0.62244599 2.54261882 1.24806767 3.8125 1.875 C4.52019531 2.22304687 5.22789062 2.57109375 5.95703125 2.9296875 C8 4 8 4 11 6 C10.67 6.66 10.34 7.32 10 8 C9.01 7.67 8.02 7.34 7 7 C7 6.34 7 5.68 7 5 C5.5459375 4.5978125 5.5459375 4.5978125 4.0625 4.1875 C3.051875 3.795625 2.04125 3.40375 1 3 C0.67 2.01 0.34 1.02 0 0 Z " fill="#FDE8D4" transform="translate(160,212)"/>
<path d="M0 0 C0.66 1.65 1.32 3.3 2 5 C0.35 5.66 -1.3 6.32 -3 7 C-3.33 5.02 -3.66 3.04 -4 1 C-2 0 -2 0 0 0 Z " fill="#F8F3E8" transform="translate(38,297)"/>
<path d="M0 0 C2.66666667 2.66666667 5.33333333 5.33333333 8 8 C7.67 8.66 7.34 9.32 7 10 C6.401875 9.360625 5.80375 8.72125 5.1875 8.0625 C3.09189663 5.79689611 3.09189663 5.79689611 0 5 C0 3.35 0 1.7 0 0 Z " fill="#D87641" transform="translate(226,250)"/>
<path d="M0 0 C1.79068573 2.6860286 2.66055791 4.6626589 3.625 7.6875 C3.88539063 8.49574219 4.14578125 9.30398437 4.4140625 10.13671875 C4.60742188 10.75160156 4.80078125 11.36648438 5 12 C4.34 12 3.68 12 3 12 C2.67 10.68 2.34 9.36 2 8 C1.34 8 0.68 8 0 8 C0 5.36 0 2.72 0 0 Z " fill="#FBE2C4" transform="translate(205,246)"/>
<path d="M0 0 C1.76462683 3.08809695 2 4.23312136 2 8 C-2.875 3.25 -2.875 3.25 -4 1 C-2.68 0.67 -1.36 0.34 0 0 Z " fill="#FCEDDB" transform="translate(285,203)"/>
<path d="M0 0 C-0.639375 0.309375 -1.27875 0.61875 -1.9375 0.9375 C-3.93610821 1.8345163 -3.93610821 1.8345163 -5 3 C-7.67058851 3.14115161 -10.32432238 3.04247107 -13 3 C-9.25711729 -0.74288271 -5.09766283 -0.09803198 0 0 Z " fill="#FEEDDB" transform="translate(127,176)"/>
<path d="M0 0 C0.33 0.99 0.66 1.98 1 3 C-4.5 6.125 -4.5 6.125 -9 5 C-6.03 3.35 -3.06 1.7 0 0 Z " fill="#DE7B47" transform="translate(111,36)"/>
<path d="M0 0 C0.66 0 1.32 0 2 0 C1.625 2.4375 1.625 2.4375 1 5 C-1.70879335 6.35439668 -4.00933268 6.06501451 -7 6 C-3.25 3 -3.25 3 -1 3 C-0.67 2.01 -0.34 1.02 0 0 Z " fill="#E46A2A" transform="translate(277,335)"/>
<path d="M0 0 C2.93200474 2.85276137 5.64315404 5.65079784 8 9 C5.125 8.4375 5.125 8.4375 2 7 C0.625 3.375 0.625 3.375 0 0 Z " fill="#D57748" transform="translate(106,318)"/>
<path d="M0 0 C2.64 0 5.28 0 8 0 C8.33 0.99 8.66 1.98 9 3 C3.46153846 3.36923077 3.46153846 3.36923077 1.125 1.5 C0.75375 1.005 0.3825 0.51 0 0 Z " fill="#E16B2E" transform="translate(195,225)"/>
<path d="M0 0 C0.144375 0.61875 0.28875 1.2375 0.4375 1.875 C0.93152225 4.03258322 0.93152225 4.03258322 2 6 C-0.35171131 5.40138258 -2.6859378 4.73075648 -5 4 C-5.33 3.34 -5.66 2.68 -6 2 C-2.25 0 -2.25 0 0 0 Z " fill="#E0733A" transform="translate(224,140)"/>
<path d="M0 0 C4 1 4 1 5.8125 3.4375 C6.204375 4.283125 6.59625 5.12875 7 6 C6.67 6.66 6.34 7.32 6 8 C4.02 5.36 2.04 2.72 0 0 Z " fill="#FBEAD7" transform="translate(105,316)"/>
<path d="M0 0 C0.66 0.33 1.32 0.66 2 1 C0.68 3.31 -0.64 5.62 -2 8 C-2.66 6.68 -3.32 5.36 -4 4 C-2.68 2.68 -1.36 1.36 0 0 Z " fill="#DD6F3B" transform="translate(366,288)"/>
<path d="M0 0 C0.33 0.99 0.66 1.98 1 3 C-2.50776784 4.60355101 -5.14354879 5.22036864 -9 5 C-6.08596738 3.05731159 -3.14191424 1.53604696 0 0 Z " fill="#FDE6CC" transform="translate(275,273)"/>
<path d="M0 0 C2.97 1.65 5.94 3.3 9 5 C9 5.33 9 5.66 9 6 C6.69 5.67 4.38 5.34 2 5 C2 4.01 2 3.02 2 2 C1.34 2 0.68 2 0 2 C0 1.34 0 0.68 0 0 Z " fill="#FEE4CA" transform="translate(122,271)"/>
<path d="M0 0 C4.61487965 1.45733042 4.61487965 1.45733042 6.375 3.9375 C7 6 7 6 6 9 C4.99712471 7.68969568 3.99777175 6.37669473 3 5.0625 C2.443125 4.33160156 1.88625 3.60070312 1.3125 2.84765625 C0 1 0 1 0 0 Z " fill="#DB743C" transform="translate(211,259)"/>
<path d="M0 0 C3 1 3 1 4.0625 2.9375 C4.371875 3.618125 4.68125 4.29875 5 5 C5.66 5.66 6.32 6.32 7 7 C6.34 7.66 5.68 8.32 5 9 C4.16094435 7.87926138 3.32892169 6.75325453 2.5 5.625 C2.0359375 4.99851563 1.571875 4.37203125 1.09375 3.7265625 C0 2 0 2 0 0 Z " fill="#FEE4CD" transform="translate(225,246)"/>
<path d="M0 0 C0.66 0.33 1.32 0.66 2 1 C-0.475 4.465 -0.475 4.465 -3 8 C-3.66 6.68 -4.32 5.36 -5 4 C-3.35 2.68 -1.7 1.36 0 0 Z " fill="#FCEAD3" transform="translate(173,248)"/>
<path d="M0 0 C0.66 0 1.32 0 2 0 C3.20272819 2.40545638 3.10071472 3.94996953 3.0625 6.625 C3.05347656 7.44226563 3.04445313 8.25953125 3.03515625 9.1015625 C3.02355469 9.72804687 3.01195312 10.35453125 3 11 C0.43383368 7.15075052 0.44902324 4.5650696 0 0 Z " fill="#FCE3D0" transform="translate(384,152)"/>
<path d="M0 0 C0.66 0.33 1.32 0.66 2 1 C-0.97 4.96 -0.97 4.96 -4 9 C-4.33 8.01 -4.66 7.02 -5 6 C-3.45233354 3.83326695 -1.88310984 1.88310984 0 0 Z " fill="#FCE9D6" transform="translate(52,80)"/>
<path d="M0 0 C6.875 3.75 6.875 3.75 8 6 C6.02 6 4.04 6 2 6 C1.67 5.34 1.34 4.68 1 4 C1.33 3.34 1.66 2.68 2 2 C1.34 2 0.68 2 0 2 C0 1.34 0 0.68 0 0 Z " fill="#FCE5D3" transform="translate(80,345)"/>
<path d="M0 0 C0.99 0 1.98 0 3 0 C2.3125 1.9375 2.3125 1.9375 1 4 C-1.625 4.75 -1.625 4.75 -4 5 C-2.1875 2.5 -2.1875 2.5 0 0 Z " fill="#DB733B" transform="translate(286,326)"/>
<path d="M0 0 C0.99 0.33 1.98 0.66 3 1 C1.73058503 4.91402949 0.48832306 6.79072873 -3 9 C-1.125 2.25 -1.125 2.25 0 0 Z " fill="#FCE4CD" transform="translate(301,304)"/>
<path d="M0 0 C1.98 0 3.96 0 6 0 C6.33 1.32 6.66 2.64 7 4 C5.35 4 3.7 4 2 4 C1.34 2.68 0.68 1.36 0 0 Z " fill="#E16D31" transform="translate(39,299)"/>
<path d="M0 0 C0.66 0 1.32 0 2 0 C1.67 0.99 1.34 1.98 1 3 C0.67 2.01 0.34 1.02 0 0 Z M-4 2 C-2.68 2.33 -1.36 2.66 0 3 C0.33 4.98 0.66 6.96 1 9 C-2.875 4.25 -2.875 4.25 -4 2 Z " fill="#FDEEDF" transform="translate(190,206)"/>
<path d="M0 0 C1.65 0 3.3 0 5 0 C3.35 1.98 1.7 3.96 0 6 C-0.66 5.34 -1.32 4.68 -2 4 C-1.34 2.68 -0.68 1.36 0 0 Z " fill="#FCE5D0" transform="translate(115,204)"/>
<path d="M0 0 C0.99 0 1.98 0 3 0 C3 0.66 3 1.32 3 2 C3.66 2 4.32 2 5 2 C5.33 3.65 5.66 5.3 6 7 C3.95880212 5.38405168 1.95927063 3.7143618 0 2 C0 1.34 0 0.68 0 0 Z " fill="#E2793E" transform="translate(212,135)"/>
<path d="M0 0 C0.99 0.33 1.98 0.66 3 1 C2.67 1.99 2.34 2.98 2 4 C0.02 4 -1.96 4 -4 4 C-4.33 3.34 -4.66 2.68 -5 2 C-3.35 2 -1.7 2 0 2 C0 1.34 0 0.68 0 0 Z " fill="#E26C30" transform="translate(120,332)"/>
<path d="M0 0 C1.9375 0.8125 1.9375 0.8125 4 2 C4.33 2.99 4.66 3.98 5 5 C3.35 5.33 1.7 5.66 0 6 C0 4.02 0 2.04 0 0 Z " fill="#FDEEE3" transform="translate(208,258)"/>
<path d="M0 0 C3.55780196 0.60990891 6.6828589 1.5783681 10 3 C10 3.66 10 4.32 10 5 C6.08788267 3.84414715 3.1254959 2.64465038 0 0 Z " fill="#D87F55" transform="translate(237,155)"/>
<path d="M0 0 C0.66 0.33 1.32 0.66 2 1 C1.67 1.66 1.34 2.32 1 3 C0.34 3 -0.32 3 -1 3 C-1 3.66 -1 4.32 -1 5 C-2.98 5 -4.96 5 -7 5 C-4.702779 3.25728062 -2.40133271 1.60088848 0 0 Z " fill="#FDE8D9" transform="translate(182,151)"/>
<path d="M0 0 C1.65 0 3.3 0 5 0 C5.33 1.98 5.66 3.96 6 6 C5.01 6.495 5.01 6.495 4 7 C2.02 3.535 2.02 3.535 0 0 Z " fill="#F9EFE3" transform="translate(357,94)"/>
<path d="M0 0 C2.475 0.99 2.475 0.99 5 2 C4.67 2.99 4.34 3.98 4 5 C3.01 5 2.02 5 1 5 C0.67 3.35 0.34 1.7 0 0 Z " fill="#F4641A" transform="translate(54,88)"/>
<path d="M0 0 C0.99 0.33 1.98 0.66 3 1 C3.6875 3.0625 3.6875 3.0625 4 5 C2.68 4.67 1.36 4.34 0 4 C0 3.34 0 2.68 0 2 C-0.66 1.67 -1.32 1.34 -2 1 C-1.34 0.67 -0.68 0.34 0 0 Z " fill="#E4713A" transform="translate(130,369)"/>
<path d="M0 0 C0.66 0 1.32 0 2 0 C1.8125 2.375 1.8125 2.375 1 5 C-1.5625 6.3125 -1.5625 6.3125 -4 7 C-2.92598892 4.08482708 -2.22189824 2.22189824 0 0 Z " fill="#FAEFDF" transform="translate(323,342)"/>
<path d="M0 0 C0.66 0.33 1.32 0.66 2 1 C1.67 1.66 1.34 2.32 1 3 C1.66 3.33 2.32 3.66 3 4 C1.35 4.33 -0.3 4.66 -2 5 C-2 2 -2 2 0 0 Z " fill="#E6692D" transform="translate(282,331)"/>
<path d="M0 0 C0.99 0.33 1.98 0.66 3 1 C3 2.32 3 3.64 3 5 C3.66 5 4.32 5 5 5 C4.67 6.32 4.34 7.64 4 9 C0 2.25 0 2.25 0 0 Z " fill="#FEE2CF" transform="translate(87,288)"/>
<path d="M0 0 C2.475 0.495 2.475 0.495 5 1 C5 1.66 5 2.32 5 3 C5.66 3 6.32 3 7 3 C7.33 3.99 7.66 4.98 8 6 C4.08597051 4.73058503 2.20927127 3.48832306 0 0 Z " fill="#FDE1CA" transform="translate(130,253)"/>
<path d="M0 0 C0.66 0.33 1.32 0.66 2 1 C2 3.64 2 6.28 2 9 C0.05276405 6.07914607 -0.55175352 4.40667322 -1 1 C-0.67 0.67 -0.34 0.34 0 0 Z " fill="#DB703B" transform="translate(274,220)"/>
<path d="M0 0 C2.475 0.495 2.475 0.495 5 1 C5.33 2.65 5.66 4.3 6 6 C3.97945196 4.35830472 1.97956942 2.69088222 0 1 C0 0.67 0 0.34 0 0 Z " fill="#FDE9D4" transform="translate(180,202)"/>
<path d="M0 0 C3 1 3 1 4 3 C1.69 3.33 -0.62 3.66 -3 4 C-2.67 3.01 -2.34 2.02 -2 1 C-1.34 0.67 -0.68 0.34 0 0 Z " fill="#F0FBF9" transform="translate(91,187)"/>
<path d="M0 0 C0.66 1.32 1.32 2.64 2 4 C1.01 5.485 1.01 5.485 0 7 C-0.66 6.67 -1.32 6.34 -2 6 C-1.125 1.125 -1.125 1.125 0 0 Z " fill="#DE6C30" transform="translate(22,138)"/>
<path d="M0 0 C0.33 0.66 0.66 1.32 1 2 C-0.13304992 5.39914975 -1.12518475 6.05254451 -4 8 C-4.66 7.67 -5.32 7.34 -6 7 C-4.02 4.69 -2.04 2.38 0 0 Z " fill="#DB7C50" transform="translate(56,78)"/>
</svg>
