<?xml version="1.0" encoding="UTF-8"?>
<svg version="1.1" xmlns="http://www.w3.org/2000/svg" width="400" height="400">
<path d="M0 0 C132 0 264 0 400 0 C400 132 400 264 400 400 C268 400 136 400 0 400 C0 268 0 136 0 0 Z " fill="#114D92" transform="translate(0,0)"/>
<path d="M0 0 C0.83402344 0.26683594 1.66804688 0.53367187 2.52734375 0.80859375 C12.67311158 4.3260017 20.17493648 11.09665089 26 20 C26.37769531 19.443125 26.75539063 18.88625 27.14453125 18.3125 C36.40226282 5.47742485 47.68841316 1.05829227 62.453125 -2.609375 C77.45009821 -4.90952427 94.47240428 -3.08366258 107 6 C118.85083 15.29583454 125.66547919 25.97013268 128 41 C128.91656579 57.92121451 126.71262541 72.63137808 115.8125 86.25 C105.98887461 96.83430434 92.08029866 101.7130928 77.921875 102.3359375 C60.59226303 102.63535138 45.9155731 99.7637513 32.72265625 87.77734375 C30.39717999 85.37804285 28.75532164 82.83551958 27 80 C26.34 79.67 25.68 79.34 25 79 C24.74089844 79.74378906 24.48179687 80.48757812 24.21484375 81.25390625 C20.50287328 89.64463049 12.03391719 94.3938061 4 98 C3.08089844 98.41507812 2.16179687 98.83015625 1.21484375 99.2578125 C-12.25398154 104.33302203 -30.61524847 104.1900057 -44 99 C-44.85207031 98.67128906 -45.70414063 98.34257812 -46.58203125 98.00390625 C-59.69374405 92.18319196 -68.09987215 81.53070504 -73.23828125 68.45703125 C-77.72060096 53.99867691 -75.95975216 36.41537218 -69.8125 22.8125 C-63.46202796 11.05376246 -53.74514926 3.59188245 -41.0625 -0.375 C-39.0475373 -0.9381123 -37.02722443 -1.48276578 -35 -2 C-34.37158203 -2.1757959 -33.74316406 -2.3515918 -33.09570312 -2.53271484 C-22.67768445 -4.85565144 -9.87332214 -3.75739277 0 0 Z " fill="#FBFDFD" transform="translate(173,123)"/>
<path d="M0 0 C0 11.22 0 22.44 0 34 C-24.08176421 44.42345018 -49.22193906 54.05109959 -75.828125 54.203125 C-76.65086914 54.21018463 -77.47361328 54.21724426 -78.32128906 54.22451782 C-112.57680588 54.45177386 -142.03518486 49.48240757 -173 34 C-173 23.11 -173 12.22 -173 1 C-169.44496471 1.71100706 -166.66711429 2.40493552 -163.359375 3.671875 C-112.07495466 22.76585788 -54.94689101 21.65658655 -4.28564453 0.88720703 C-2 0 -2 0 0 0 Z " fill="#FBFDFD" transform="translate(285,225)"/>
<path d="M0 0 C4.47095053 2.70181613 8.06482899 6.09039948 10 11 C12.40567278 22.18021003 12.3217248 35.1688866 6.0625 45.0625 C1.61351148 49.24185285 -2.37707536 49.43495849 -8.3046875 49.31640625 C-12.11590137 48.86900288 -14.20302923 47.58719797 -17 45 C-23.16169068 37.07782626 -22.65523473 26.5213797 -22 17 C-20.87079352 10.77172053 -18.4554716 6.4554716 -14 2 C-9.52889912 -0.69953261 -5.0785098 -1.01114042 0 0 Z " fill="#114D91" transform="translate(252,148)"/>
<path d="M0 0 C5.0029395 2.54695102 7.89720229 5.37526005 10.05859375 10.51953125 C11.27497626 15.01661346 11.32981448 19.17568313 11.3125 23.8125 C11.32861328 24.66392578 11.34472656 25.51535156 11.36132812 26.39257812 C11.36692934 33.74696779 10.2947073 40.24635124 5.5 46 C0.55266283 49.95786973 -4.93775903 49.44575301 -11 49 C-14.90569381 47.81131058 -16.63674384 45.52044504 -18.8125 42.1875 C-21.43829131 36.57030087 -21.50728 31.0314578 -21.5625 24.9375 C-21.57708252 24.00381592 -21.59166504 23.07013184 -21.60668945 22.1081543 C-21.51375019 15.72125521 -20.34435454 10.50096006 -17 5 C-11.63076368 -0.1135584 -7.24061728 -0.8119279 0 0 Z " fill="#134E91" transform="translate(157,148)"/>
<path d="M0 0 C-0.99 0.33 -1.98 0.66 -3 1 C-3 1.99 -3 2.98 -3 4 C-1.02 4.66 0.96 5.32 3 6 C0.12857029 7.91428647 -2.08270275 8.79789926 -5.33984375 9.83984375 C-6.40396484 10.18080078 -7.46808594 10.52175781 -8.56445312 10.87304688 C-9.67755859 11.22431641 -10.79066406 11.57558594 -11.9375 11.9375 C-13.55495117 12.45860352 -13.55495117 12.45860352 -15.20507812 12.99023438 C-38.37606794 20.36219099 -38.37606794 20.36219099 -48 20 C-48.66 19.34 -49.32 18.68 -50 18 C-48.989375 17.9175 -47.97875 17.835 -46.9375 17.75 C-43.78971928 17.333199 -42.8126265 16.86843988 -40.0625 14.9375 C-34.3982981 11.30559276 -26.43851812 12.72174472 -20 13 C-20 12.34 -20 11.68 -20 11 C-22.475 10.505 -22.475 10.505 -25 10 C-25 9.34 -25 8.68 -25 8 C-28.3 7.01 -31.6 6.02 -35 5 C-35 4.67 -35 4.34 -35 4 C-34.030625 3.97421875 -33.06125 3.9484375 -32.0625 3.921875 C-23.76318485 3.60238948 -16.13613627 2.59368431 -8.14257812 0.28417969 C-3.28129205 -1.09376402 -3.28129205 -1.09376402 0 0 Z " fill="#154D8F" transform="translate(275,221)"/>
<path d="M0 0 C0.66 0 1.32 0 2 0 C7.40256645 7.13138772 6.15333968 16.6325425 6.125 25.125 C6.13080078 26.87490234 6.13080078 26.87490234 6.13671875 28.66015625 C6.13542969 29.78550781 6.13414062 30.91085938 6.1328125 32.0703125 C6.13168457 33.08883301 6.13055664 34.10735352 6.12939453 35.15673828 C6.00568132 37.87516095 5.61128642 40.35271093 5 43 C4.34 43 3.68 43 3 43 C3.33 43.99 3.66 44.98 4 46 C4.66 46.33 5.32 46.66 6 47 C6.25 49.75 6.25 49.75 6 53 C4.125 55.125 4.125 55.125 2 57 C0.76487921 59.13309192 0.76487921 59.13309192 0 61 C-0.66 60.67 -1.32 60.34 -2 60 C-2.66 60 -3.32 60 -4 60 C-4.78375 60.804375 -5.5675 61.60875 -6.375 62.4375 C-8.94429231 64.94561869 -9.68447669 65.38627547 -13 66 C-12.61328125 65.55269531 -12.2265625 65.10539062 -11.828125 64.64453125 C-10.74387586 63.38583608 -9.66334183 62.12393407 -8.5859375 60.859375 C-7.35780251 59.4194926 -6.11863195 57.989019 -4.875 56.5625 C3.65503264 44.90478873 5.51247709 30.09988914 4 16 C3.04871679 10.56475009 1.59130821 5.27831252 0 0 Z " fill="#154E8D" transform="translate(296,148)"/>
<path d="M0 0 C0.70125 0.28746094 1.4025 0.57492188 2.125 0.87109375 C5.0595164 2.02336989 8.01117971 3.05987279 11 4.0625 C12.5159375 4.57490234 12.5159375 4.57490234 14.0625 5.09765625 C19.65578997 6.81580782 25.00102869 7.26535017 30.8125 7.5625 C31.60076172 7.60568359 32.38902344 7.64886719 33.20117188 7.69335938 C35.13394215 7.79878321 37.06695026 7.89983094 39 8 C39 8.33 39 8.66 39 9 C37.81664062 9.04898438 36.63328125 9.09796875 35.4140625 9.1484375 C27.09222062 9.52942265 19.12849016 10.0334298 11 12 C12.65 12.66 14.3 13.32 16 14 C14.515625 15.1796875 14.515625 15.1796875 12 16 C9.11969229 15.37444758 6.46655217 14.2528971 3.75 13.125 C3.00492187 12.82980469 2.25984375 12.53460938 1.4921875 12.23046875 C-0.34404747 11.50068306 -2.17280189 10.75212573 -4 10 C-2.03617993 8.49440461 -0.21736634 7.10868317 2 6 C2.33 7.32 2.66 8.64 3 10 C3.66 10 4.32 10 5 10 C4.81171228 7.55519921 4.81171228 7.55519921 4 5 C2.03241727 3.63979849 2.03241727 3.63979849 0 3 C0 2.01 0 1.02 0 0 Z " fill="#22538B" transform="translate(119,217)"/>
<path d="M0 0 C0.66 0 1.32 0 2 0 C6.90490143 8.50182914 6.04512531 20.85705176 3.75 30.0625 C2.27456875 34.77279694 0.54974932 38.43904235 -3.79296875 41.09765625 C-8.02316289 42.82716925 -12.52252082 42.55564677 -17 42 C-19.46325185 40.92086109 -20.9424654 39.77948939 -23 38 C-20.35011692 36.67505846 -19.11624372 37.24095215 -16.25 37.875 C-12.50962861 38.67728256 -8.77996648 39.40316319 -5 40 C-5 39.34 -5 38.68 -5 38 C-3.66666667 36.66666667 -2.33333333 35.33333333 -1 34 C1.06036476 30.72527487 1.24630666 28.15011212 1.23046875 24.31640625 C1.22853516 23.22392578 1.22660156 22.13144531 1.22460938 21.00585938 C1.21236328 19.86955078 1.20011719 18.73324219 1.1875 17.5625 C1.18685547 16.43005859 1.18621094 15.29761719 1.18554688 14.13085938 C1.15977188 9.27084091 1.08925753 4.7541609 0 0 Z " fill="#305889" transform="translate(258,155)"/>
<path d="M0 0 C2.83222541 2.83222541 2.29015483 4.97197318 2.32226562 8.84570312 C2.31904297 9.74224609 2.31582031 10.63878906 2.3125 11.5625 C2.32861328 12.43197266 2.34472656 13.30144531 2.36132812 14.19726562 C2.36687076 21.62993514 1.35010753 28.17987097 -3.5 34 C-8.43330791 37.94664633 -13.94991169 37.47085856 -20 37 C-25.09554832 35.15692933 -26.70613389 31.67269022 -29 27 C-29 26.34 -29 25.68 -29 25 C-24.97449681 26.3418344 -24.11714364 28.4227573 -22 32 C-22 32.66 -22 33.32 -22 34 C-20.02 34 -18.04 34 -16 34 C-16 34.33 -16 34.66 -16 35 C-14.35 35.33 -12.7 35.66 -11 36 C-11 35.34 -11 34.68 -11 34 C-9.35 34 -7.7 34 -6 34 C-5.87625 33.46375 -5.7525 32.9275 -5.625 32.375 C-4.87793984 29.5361714 -3.94696636 26.77776798 -3 24 C-2.34 24 -1.68 24 -1 24 C-1.00785522 23.06933716 -1.00785522 23.06933716 -1.01586914 22.11987305 C-1.03665466 19.30909233 -1.04966517 16.49832779 -1.0625 13.6875 C-1.07087891 12.71103516 -1.07925781 11.73457031 -1.08789062 10.72851562 C-1.09272461 9.32182617 -1.09272461 9.32182617 -1.09765625 7.88671875 C-1.10551147 6.59060669 -1.10551147 6.59060669 -1.11352539 5.26831055 C-1 3 -1 3 0 0 Z " fill="#2B538A" transform="translate(166,160)"/>
<path d="M0 0 C-0.99 0.33 -1.98 0.66 -3 1 C-3 1.99 -3 2.98 -3 4 C-1.02 4.66 0.96 5.32 3 6 C-0.22378756 8.1491917 -2.98414648 9.024994 -6.6875 10.125 C-7.86699219 10.47820312 -9.04648437 10.83140625 -10.26171875 11.1953125 C-11.16535156 11.46085938 -12.06898438 11.72640625 -13 12 C-13.33 11.34 -13.66 10.68 -14 10 C-11.69 9.34 -9.38 8.68 -7 8 C-7 7.34 -7 6.68 -7 6 C-9.47106557 4.76446721 -10.86558119 4.98073554 -13.61328125 5.15625 C-14.53173828 5.20910156 -15.45019531 5.26195312 -16.39648438 5.31640625 C-18.32882245 5.43806719 -20.26111497 5.56045411 -22.19335938 5.68359375 C-23.11568359 5.73644531 -24.03800781 5.78929687 -24.98828125 5.84375 C-25.82915283 5.89724609 -26.67002441 5.95074219 -27.53637695 6.00585938 C-30.14823469 5.99964744 -32.46155369 5.59174678 -35 5 C-35 4.67 -35 4.34 -35 4 C-34.030625 3.97421875 -33.06125 3.9484375 -32.0625 3.921875 C-23.76318485 3.60238948 -16.13613627 2.59368431 -8.14257812 0.28417969 C-3.28129205 -1.09376402 -3.28129205 -1.09376402 0 0 Z " fill="#2A5789" transform="translate(275,221)"/>
<path d="M0 0 C3.56422632 1.18807544 4.03224115 2.16968107 6.125 5.1875 C12.11514092 13.09900688 19.80816693 16.73776279 29 20 C28.01 20.66 27.02 21.32 26 22 C23.6340213 21.07989717 21.30144109 20.07136051 19 19 C17.700625 18.814375 17.700625 18.814375 16.375 18.625 C12.90624608 17.71217002 11.28555254 15.67736155 9 13 C9 12.34 9 11.68 9 11 C8.01 11 7.02 11 6 11 C5.34 9.02 4.68 7.04 4 5 C2.35 5 0.7 5 -1 5 C-1.144375 5.78375 -1.28875 6.5675 -1.4375 7.375 C-2 10 -2 10 -3 12 C-3.99 12 -4.98 12 -6 12 C-6.33 11.01 -6.66 10.02 -7 9 C-5.8203125 7.24609375 -5.8203125 7.24609375 -4.125 5.4375 C-1.77689547 2.91862639 -1.77689547 2.91862639 0 0 Z " fill="#295287" transform="translate(198,202)"/>
<path d="M0 0 C1.78712402 -0.00870117 1.78712402 -0.00870117 3.61035156 -0.01757812 C13.56291468 0.12115289 21.70207059 2.39795614 30.6875 6.5 C30.3575 7.49 30.0275 8.48 29.6875 9.5 C28.92566406 9.16226563 28.16382813 8.82453125 27.37890625 8.4765625 C9.39813826 0.70958906 -6.69617217 0.94188773 -25.3125 6.5 C-26.64355157 6.84233115 -27.97568615 7.18091127 -29.3125 7.5 C-29.3125 6.84 -29.3125 6.18 -29.3125 5.5 C-19.62460689 0.88671756 -10.66371621 0.00558164 0 0 Z " fill="#285686" transform="translate(247.3125,118.5)"/>
<path d="M0 0 C1.5207267 -0.02753831 3.04160674 -0.04663375 4.5625 -0.0625 C5.40941406 -0.07410156 6.25632813 -0.08570313 7.12890625 -0.09765625 C10 0 10 0 13.2265625 0.48632812 C16.92605752 0.98993433 20.51568121 1.20433377 24.24609375 1.31640625 C25.23005882 1.3475779 25.23005882 1.3475779 26.23390198 1.37937927 C28.30167546 1.44405938 30.36956101 1.50337466 32.4375 1.5625 C33.85092242 1.60576307 35.26433407 1.64937965 36.67773438 1.69335938 C40.11837471 1.79965516 43.55913692 1.90114472 47 2 C43.88235947 4.07842702 43.175688 4.25527652 39.6328125 4.265625 C38.7564917 4.26965332 37.8801709 4.27368164 36.97729492 4.27783203 C36.0360376 4.26864746 35.09478027 4.25946289 34.125 4.25 C32.67540894 4.24202393 32.67540894 4.24202393 31.1965332 4.23388672 C24.16757507 4.14389601 17.1880429 3.75510968 10.1875 3.125 C9.28080566 3.04668945 8.37411133 2.96837891 7.43994141 2.88769531 C5.28397924 2.6698033 3.13922126 2.34551729 1 2 C0.67 1.34 0.34 0.68 0 0 Z " fill="#3E6590" transform="translate(164,239)"/>
<path d="M0 0 C1.65 0 3.3 0 5 0 C5.91595583 3.83064235 6.06425908 7.25325203 5.9140625 11.18359375 C5.87023437 12.35857422 5.82640625 13.53355469 5.78125 14.74414062 C5.70390625 16.57235352 5.70390625 16.57235352 5.625 18.4375 C5.58117187 19.65244141 5.53734375 20.86738281 5.4921875 22.11914062 C5.27966676 27.50595108 4.97443742 32.68936581 4 38 C1.525 38.495 1.525 38.495 -1 39 C-0.34 37.68 0.32 36.36 1 35 C1.66 35 2.32 35 3 35 C3 23.78 3 12.56 3 1 C2.01 0.67 1.02 0.34 0 0 Z " fill="#1D4B7C" transform="translate(282,224)"/>
<path d="M0 0 C3.94684991 -0.07505712 7.89341427 -0.12902215 11.84082031 -0.16479492 C13.83152905 -0.18701479 15.82203968 -0.22516595 17.8125 -0.26367188 C25.41181664 -0.32124246 31.89367547 0.21174733 39 3 C38.67 3.66 38.34 4.32 38 5 C37.29359375 4.7834375 36.5871875 4.566875 35.859375 4.34375 C20.35691284 0.13705173 5.14809493 0.87582962 -10 6 C-11.68996094 6.56074219 -11.68996094 6.56074219 -13.4140625 7.1328125 C-14.26742187 7.41898437 -15.12078125 7.70515625 -16 8 C-16 7.34 -16 6.68 -16 6 C-10.45108785 3.18150494 -6.258654 1.4673486 0 2 C0 1.34 0 0.68 0 0 Z " fill="#275382" transform="translate(137,119)"/>
<path d="M0 0 C1.98 0.66 3.96 1.32 6 2 C6 2.66 6 3.32 6 4 C8.65228812 5.07525194 11.28368454 6.09456151 14 7 C14 7.66 14 8.32 14 9 C14.66 9 15.32 9 16 9 C16.33 8.34 16.66 7.68 17 7 C18.65 7.66 20.3 8.32 22 9 C20.35 11.64 18.7 14.28 17 17 C14.3365757 14.41267354 11.93575625 11.91885 9.625 9 C6.67041775 5.62333457 3.6849518 3.52888849 0 1 C0 0.67 0 0.34 0 0 Z " fill="#25568D" transform="translate(183,127)"/>
<path d="M0 0 C0 0.66 0 1.32 0 2 C-18.66149786 7.41460464 -18.66149786 7.41460464 -26 7 C-26.66 6.34 -27.32 5.68 -28 5 C-26.989375 4.9175 -25.97875 4.835 -24.9375 4.75 C-21.77592848 4.32971172 -20.74180256 3.82611193 -17.9375 1.9375 C-12.65528633 -1.43386679 -6.00422344 -0.29979479 0 0 Z " fill="#215287" transform="translate(253,234)"/>
<path d="M0 0 C0.66 0 1.32 0 2 0 C7.40256645 7.13138772 6.15333968 16.6325425 6.125 25.125 C6.12886719 26.29160156 6.13273437 27.45820313 6.13671875 28.66015625 C6.13542969 29.78550781 6.13414062 30.91085938 6.1328125 32.0703125 C6.13168457 33.08883301 6.13055664 34.10735352 6.12939453 35.15673828 C6.00568132 37.87516095 5.61128642 40.35271093 5 43 C3.515 43.495 3.515 43.495 2 44 C2.144375 43.40316406 2.28875 42.80632812 2.4375 42.19140625 C5.59202663 27.44837554 4.30167506 14.26850255 0 0 Z " fill="#2D537C" transform="translate(296,148)"/>
<path d="M0 0 C0.66 0.33 1.32 0.66 2 1 C1.835 1.99 1.67 2.98 1.5 4 C0.95639732 8.38821294 0.85268931 12.77069525 0.8125 17.1875 C0.79960937 17.87650391 0.78671875 18.56550781 0.7734375 19.27539062 C0.76556666 23.34067835 1.3225369 26.31615947 3 30 C3.125 32.8125 3.125 32.8125 3 35 C-2.93011104 28.53078796 -2.3018389 19.82422863 -2.203125 11.58984375 C-1.96807164 7.43572762 -1.28729495 3.9423408 0 0 Z " fill="#315B88" transform="translate(232,157)"/>
<path d="M0 0 C5 1 5 1 8 3 C6.68 3.33 5.36 3.66 4 4 C4 3.34 4 2.68 4 2 C3.01 2 2.02 2 1 2 C1.25124634 2.80872559 1.25124634 2.80872559 1.50756836 3.63378906 C2.09742162 6.46812612 2.01171659 8.96706086 1.87890625 11.859375 C1.83056641 12.97441406 1.78222656 14.08945313 1.73242188 15.23828125 C1.67634766 16.39714844 1.62027344 17.55601562 1.5625 18.75 C1.51029297 19.92433594 1.45808594 21.09867188 1.40429688 22.30859375 C1.27473776 25.20600664 1.13977553 28.10306493 1 31 C2.98 31.33 4.96 31.66 7 32 C7 32.66 7 33.32 7 34 C5.515 34.495 5.515 34.495 4 35 C2.68 34.34 1.36 33.68 0 33 C0 22.11 0 11.22 0 0 Z " fill="#EBF9FD" transform="translate(112,226)"/>
<path d="M0 0 C-0.96099609 0.69222656 -0.96099609 0.69222656 -1.94140625 1.3984375 C-8.33621375 6.22075135 -12.79051742 11.19792219 -17 18 C-17.93423645 14.98968256 -18.04449911 14.13349732 -17 11 C-16.34 11 -15.68 11 -15 11 C-15 10.34 -15 9.68 -15 9 C-14.34 9 -13.68 9 -13 9 C-12.67 7.68 -12.34 6.36 -12 5 C-10.68 4.67 -9.36 4.34 -8 4 C-7.896875 3.360625 -7.79375 2.72125 -7.6875 2.0625 C-7.460625 1.381875 -7.23375 0.70125 -7 0 C-3.86650268 -1.04449911 -3.01031744 -0.93423645 0 0 Z " fill="#285383" transform="translate(121,128)"/>
<path d="M0 0 C2 3 2 3 1.8125 5.6875 C0.99452732 9.02231168 -0.09219318 12.08885972 -1.37890625 15.265625 C-2.11238074 17.00677945 -2.11238074 17.00677945 -2 19 C-5.62326739 20.2077558 -6.64146369 19.54311128 -10 18 C-9.236875 17.2575 -8.47375 16.515 -7.6875 15.75 C-2.69074511 10.63704151 -1.26629823 6.97208908 0 0 Z " fill="#EDF7FC" transform="translate(262,179)"/>
<path d="M0 0 C-4.91426591 4.17393495 -8.3687661 6.65700514 -15 7 C-16.81315571 7.18104932 -18.62564909 7.36882817 -20.4375 7.5625 C-21.95819103 7.70980986 -23.47897677 7.85616078 -25 8 C-20.59542217 5.72144675 -16.01650588 4.04094137 -11.375 2.3125 C-10.50359375 1.97927734 -9.6321875 1.64605469 -8.734375 1.30273438 C-7.48527344 0.83770508 -7.48527344 0.83770508 -6.2109375 0.36328125 C-5.45087402 0.07751221 -4.69081055 -0.20825684 -3.90771484 -0.50268555 C-2 -1 -2 -1 0 0 Z " fill="#29558C" transform="translate(276,264)"/>
<path d="M0 0 C0.66 0 1.32 0 2 0 C2 5.94 2 11.88 2 18 C1.01 17.67 0.02 17.34 -1 17 C-1.02691685 14.54159395 -1.04679802 12.08348118 -1.0625 9.625 C-1.07087891 8.92632812 -1.07925781 8.22765625 -1.08789062 7.5078125 C-1.11328125 2.2265625 -1.11328125 2.2265625 0 0 Z " fill="#184A89" transform="translate(109,239)"/>
<path d="M0 0 C1 2 1 2 0.1875 4.5 C-1 7 -1 7 -3 9 C-6.4375 9.75 -6.4375 9.75 -10 10 C-10.99 9.34 -11.98 8.68 -13 8 C-12.22914063 7.59007812 -11.45828125 7.18015625 -10.6640625 6.7578125 C-9.66117188 6.21898437 -8.65828125 5.68015625 -7.625 5.125 C-6.62726563 4.59132812 -5.62953125 4.05765625 -4.6015625 3.5078125 C-1.94651605 2.1179862 -1.94651605 2.1179862 0 0 Z " fill="#20538B" transform="translate(190,212)"/>
<path d="M0 0 C0.66 0.33 1.32 0.66 2 1 C1.01 2.485 1.01 2.485 0 4 C-1.78987156 9.80769513 -2.26128076 14.9512307 -2.125 21 C-2.11597656 21.77472656 -2.10695312 22.54945313 -2.09765625 23.34765625 C-2.07439388 25.23190843 -2.0385364 27.11599832 -2 29 C-2.66 29 -3.32 29 -4 29 C-4.22702385 25.77186442 -4.42828723 22.54261311 -4.625 19.3125 C-4.68945312 18.40048828 -4.75390625 17.48847656 -4.8203125 16.54882812 C-5.22305466 9.62669717 -4.46355344 5.4779974 0 0 Z " fill="#EDFAFB" transform="translate(233,153)"/>
<path d="M0 0 C3.73639216 1.24546405 4.18756513 2.63404953 6 6 C5.01 6.495 5.01 6.495 4 7 C4 6.34 4 5.68 4 5 C2.35 5 0.7 5 -1 5 C-1.144375 5.78375 -1.28875 6.5675 -1.4375 7.375 C-2 10 -2 10 -3 12 C-3.99 12 -4.98 12 -6 12 C-6.33 11.01 -6.66 10.02 -7 9 C-5.8203125 7.24609375 -5.8203125 7.24609375 -4.125 5.4375 C-1.77689547 2.91862639 -1.77689547 2.91862639 0 0 Z " fill="#385E8A" transform="translate(198,202)"/>
<path d="M0 0 C0.66 0 1.32 0 2 0 C1.34 7.59 0.68 15.18 0 23 C-0.66 23 -1.32 23 -2 23 C-2.22834646 8.2335958 -2.22834646 8.2335958 -1 1 C-0.67 0.67 -0.34 0.34 0 0 Z " fill="#3E6694" transform="translate(98,155)"/>
<path d="M0 0 C0.78375 0.78375 1.5675 1.5675 2.375 2.375 C6.3966367 5.78759075 10.89727996 6.32434339 16 7 C16 7.33 16 7.66 16 8 C11.545 8.495 11.545 8.495 7 9 C7 8.34 7 7.68 7 7 C5.02 7.66 3.04 8.32 1 9 C0.34 8.34 -0.32 7.68 -1 7 C-1 3 -1 3 0 0 Z " fill="#DDEBF2" transform="translate(233,190)"/>
<path d="M0 0 C0.89203125 0.01804688 1.7840625 0.03609375 2.703125 0.0546875 C3.71632812 0.08949219 3.71632812 0.08949219 4.75 0.125 C4.75 0.455 4.75 0.785 4.75 1.125 C1.45 1.785 -1.85 2.445 -5.25 3.125 C-5.91 5.435 -6.57 7.745 -7.25 10.125 C-8.57 10.125 -9.89 10.125 -11.25 10.125 C-11.58 9.135 -11.91 8.145 -12.25 7.125 C-11.59 7.125 -10.93 7.125 -10.25 7.125 C-10.1675 6.34125 -10.085 5.5575 -10 4.75 C-9.25 2.125 -9.25 2.125 -7.53125 0.96875 C-4.8707085 -0.0152859 -2.82819586 -0.07442621 0 0 Z " fill="#134C92" transform="translate(247.25,147.875)"/>
<path d="M0 0 C-0.62648438 0.32613281 -1.25296875 0.65226563 -1.8984375 0.98828125 C-2.71570313 1.42527344 -3.53296875 1.86226562 -4.375 2.3125 C-5.18710937 2.74175781 -5.99921875 3.17101562 -6.8359375 3.61328125 C-9.26834043 4.96778724 -9.26834043 4.96778724 -11 8 C-13.31 7.01 -15.62 6.02 -18 5 C-14.81886649 2.87924433 -12.07995044 1.93982824 -8.4375 0.8125 C-7.28121094 0.44769531 -6.12492187 0.08289063 -4.93359375 -0.29296875 C-2 -1 -2 -1 0 0 Z " fill="#D7E7F2" transform="translate(268,232)"/>
<path d="M0 0 C1.9453125 -0.29296875 1.9453125 -0.29296875 4.125 -0.1875 C5.40375 -0.125625 6.6825 -0.06375 8 0 C7.2575 0.515625 6.515 1.03125 5.75 1.5625 C2.46371455 4.47534392 1.01236241 7.12433906 -1 11 C-1.66 11 -2.32 11 -3 11 C-2.25 3.375 -2.25 3.375 0 0 Z " fill="#E6F5FA" transform="translate(139,148)"/>
<path d="M0 0 C0.66 0.33 1.32 0.66 2 1 C2 1.99 2 2.98 2 4 C2.99 3.67 3.98 3.34 5 3 C5 2.67 5 2.34 5 2 C8.465 1.505 8.465 1.505 12 1 C8.82043531 4.54294351 6.83654037 6.61816787 2 7 C1.01 7 0.02 7 -1 7 C-0.67 4.69 -0.34 2.38 0 0 Z " fill="#19508A" transform="translate(199,129)"/>
<path d="M0 0 C0.66 0.33 1.32 0.66 2 1 C1.8125 4.3125 1.8125 4.3125 1 8 C-1.5625 9.9375 -1.5625 9.9375 -4 11 C-4.33 10.34 -4.66 9.68 -5 9 C-5.99 8.34 -6.98 7.68 -8 7 C-7.236875 6.5875 -6.47375 6.175 -5.6875 5.75 C-3.0633358 4.04124191 -1.69678024 2.58982247 0 0 Z " fill="#E5F1F6" transform="translate(165,189)"/>
<path d="M0 0 C1.32830085 3.98490254 0.81984985 5.21471231 -1 9 C-3.42780268 11.65279301 -5.93612348 14.10100327 -9 16 C-9.99 15.67 -10.98 15.34 -12 15 C-11.278125 14.29875 -10.55625 13.5975 -9.8125 12.875 C-5.96555487 9.01712605 -2.14974261 5.08120981 0 0 Z " fill="#2A598B" transform="translate(295,198)"/>
<path d="M0 0 C6.20101304 3.49800736 10.39973733 8.64324969 15 14 C14.67 14.66 14.34 15.32 14 16 C13.34 16 12.68 16 12 16 C11.67 14.35 11.34 12.7 11 11 C10.34 11 9.68 11 9 11 C6.375 8.625 6.375 8.625 4 6 C4 5.34 4 4.68 4 4 C2.68 3.67 1.36 3.34 0 3 C0 2.01 0 1.02 0 0 Z " fill="#E3F4FB" transform="translate(279,129)"/>
<path d="M0 0 C1.93798521 0.30947671 3.87537426 0.62268834 5.8125 0.9375 C6.89144531 1.11152344 7.97039062 1.28554687 9.08203125 1.46484375 C12 2 12 2 15 3 C15 3.66 15 4.32 15 5 C8.63544353 5.50916452 4.94875005 5.18740389 0 1 C0 0.67 0 0.34 0 0 Z " fill="#1E487F" transform="translate(235,192)"/>
<path d="M0 0 C1.98 0.495 1.98 0.495 4 1 C4 5.29 4 9.58 4 14 C1.90217213 11.90217213 1.3490604 10.6200793 0.375 7.875 C0.11460937 7.15054688 -0.14578125 6.42609375 -0.4140625 5.6796875 C-0.70410156 4.84824219 -0.70410156 4.84824219 -1 4 C-0.34 4 0.32 4 1 4 C0.67 2.68 0.34 1.36 0 0 Z " fill="#E6F0F5" transform="translate(164,148)"/>
<path d="M0 0 C0.33 0 0.66 0 1 0 C1.3690205 17.85649203 1.3690205 17.85649203 -1 26 C-2.125 24.4375 -2.125 24.4375 -3 22 C-2.39618062 19.64961896 -1.72010897 17.31739767 -1 15 C-0.72433032 12.36033278 -0.51572333 9.71278937 -0.375 7.0625 C-0.33632813 6.37865234 -0.29765625 5.69480469 -0.2578125 4.99023438 C-0.16477588 3.32720487 -0.08136213 1.66364153 0 0 Z " fill="#DCEDF6" transform="translate(300,164)"/>
<path d="M0 0 C5.01124636 1.86132008 9.37441488 3.99277434 13 8 C12.67 8.99 12.34 9.98 12 11 C7.81576108 7.49102731 3.80411834 3.91939465 0 0 Z " fill="#35588E" transform="translate(279,128)"/>
<path d="M0 0 C0.66 0.33 1.32 0.66 2 1 C0.625 3 0.625 3 -1 5 C-1.66 5 -2.32 5 -3 5 C-3.33 5.99 -3.66 6.98 -4 8 C-5.33076989 8.34342449 -6.66431979 8.67619874 -8 9 C-8.99 10.485 -8.99 10.485 -10 12 C-10.66 11.34 -11.32 10.68 -12 10 C-10.56458334 8.70601853 -9.12658648 7.41489889 -7.6875 6.125 C-6.88699219 5.40570313 -6.08648437 4.68640625 -5.26171875 3.9453125 C-3 2 -3 2 0 0 Z " fill="#DCEFF9" transform="translate(121,127)"/>
<path d="M0 0 C0.66 0 1.32 0 2 0 C1.39169139 6.44807122 1.39169139 6.44807122 -0.375 8.9375 C-2 10 -2 10 -5 10 C-3.85569823 6.12697862 -2.76679902 2.99736561 0 0 Z " fill="#E3F1F6" transform="translate(107,140)"/>
<path d="M0 0 C0.66 1.32 1.32 2.64 2 4 C1.01 5.485 1.01 5.485 0 7 C-0.33 7.99 -0.66 8.98 -1 10 C-2.65 9.67 -4.3 9.34 -6 9 C-4.02 6.03 -2.04 3.06 0 0 Z " fill="#E7EFF0" transform="translate(206,134)"/>
<path d="M0 0 C0.99 0.33 1.98 0.66 3 1 C-0.732388 4.57011026 -5.0949989 5.10913442 -10 6 C-10.66 5.01 -11.32 4.02 -12 3 C-6.06 2.505 -6.06 2.505 0 2 C0 1.34 0 0.68 0 0 Z " fill="#E1F1F8" transform="translate(273,217)"/>
<path d="M0 0 C5.85685923 -0.38196908 11.71111731 0.28463494 17 3 C17.7890625 5.109375 17.7890625 5.109375 18 7 C17.11957031 6.65066406 16.23914063 6.30132812 15.33203125 5.94140625 C14.17058594 5.48636719 13.00914062 5.03132813 11.8125 4.5625 C10.66394531 4.11003906 9.51539063 3.65757813 8.33203125 3.19140625 C5.52876767 2.18906699 2.92887424 1.47987205 0 1 C0 0.67 0 0.34 0 0 Z " fill="#325A82" transform="translate(260,121)"/>
<path d="M0 0 C1.62723299 0.45034123 3.25173664 0.91055354 4.875 1.375 C5.77992188 1.63023437 6.68484375 1.88546875 7.6171875 2.1484375 C10 3 10 3 12 5 C8.22134307 6.25955231 6.96588214 5.48087189 3.3125 4.0625 C2.31863281 3.68222656 1.32476562 3.30195313 0.30078125 2.91015625 C-0.45847656 2.60980469 -1.21773437 2.30945313 -2 2 C-1.34 1.34 -0.68 0.68 0 0 Z " fill="#DDEFF5" transform="translate(132,265)"/>
<path d="M0 0 C1.60294922 0.15275391 1.60294922 0.15275391 3.23828125 0.30859375 C4.45064453 0.43427734 4.45064453 0.43427734 5.6875 0.5625 C5.6875 0.8925 5.6875 1.2225 5.6875 1.5625 C-0.36079486 2.45854368 -6.2019576 2.67519443 -12.3125 2.5625 C-11.9825 1.9025 -11.6525 1.2425 -11.3125 0.5625 C-7.43443845 -0.60441222 -3.99728594 -0.39533597 0 0 Z " fill="#CDE0EC" transform="translate(220.3125,276.4375)"/>
<path d="M0 0 C2.9156164 3.54039134 5.50127818 7.1626772 8 11 C7.34 11.66 6.68 12.32 6 13 C2.9219997 10.22979973 1.19517992 7.98393307 0 4 C0 2.68 0 1.36 0 0 Z " fill="#2A5685" transform="translate(103,199)"/>
<path d="M0 0 C1.98 0.66 3.96 1.32 6 2 C3.14521674 3.90318884 1.58058692 4.4619099 -1.6875 5.125 C-2.49574219 5.29257812 -3.30398437 5.46015625 -4.13671875 5.6328125 C-4.75160156 5.75398438 -5.36648437 5.87515625 -6 6 C-6.33 5.34 -6.66 4.68 -7 4 C-4.69 3.34 -2.38 2.68 0 2 C0 1.34 0 0.68 0 0 Z " fill="#E2F1F7" transform="translate(255,266)"/>
<path d="M0 0 C3.63 0 7.26 0 11 0 C11.33 0.99 11.66 1.98 12 3 C10.18674449 2.88648483 8.37436643 2.75887039 6.5625 2.625 C5.04849609 2.52058594 5.04849609 2.52058594 3.50390625 2.4140625 C2.67761719 2.27742187 1.85132813 2.14078125 1 2 C0.67 1.34 0.34 0.68 0 0 Z " fill="#2A578C" transform="translate(139,234)"/>
<path d="M0 0 C1.00289062 0.10183594 2.00578125 0.20367187 3.0390625 0.30859375 C3.80992187 0.39238281 4.58078125 0.47617188 5.375 0.5625 C5.375 0.8925 5.375 1.2225 5.375 1.5625 C3.77619187 1.97944996 2.17058739 2.37040856 0.5625 2.75 C-0.33082031 2.97042969 -1.22414062 3.19085938 -2.14453125 3.41796875 C-4.625 3.5625 -4.625 3.5625 -6.44921875 2.11328125 C-6.83722656 1.60152344 -7.22523438 1.08976563 -7.625 0.5625 C-4.89657939 -0.80171031 -3.01546682 -0.31557211 0 0 Z " fill="#184A81" transform="translate(239.625,225.4375)"/>
<path d="M0 0 C1.32 0.99 2.64 1.98 4 3 C2.71034824 4.37562854 1.37310707 5.70766393 0 7 C-0.66 7 -1.32 7 -2 7 C-2.33 5.35 -2.66 3.7 -3 2 C-2.01 1.34 -1.02 0.68 0 0 Z " fill="#E9F4F7" transform="translate(188,208)"/>
<path d="M0 0 C0.99 0 1.98 0 3 0 C2.67 1.32 2.34 2.64 2 4 C1.01 4 0.02 4 -1 4 C-1.28875 4.804375 -1.5775 5.60875 -1.875 6.4375 C-3 9 -3 9 -5 10 C-3.86059291 6.14354522 -2.82205934 2.93494171 0 0 Z " fill="#2D5487" transform="translate(142,151)"/>
<path d="M0 0 C0.99 0.495 0.99 0.495 2 1 C2 1.66 2 2.32 2 3 C6.33420699 5.03165952 10.28596212 5.52060632 15 6 C15 6.33 15 6.66 15 7 C4.92704704 7.62521777 4.92704704 7.62521777 1.3125 5.1875 C0 3 0 3 0 0 Z " fill="#D3E5F5" transform="translate(139,191)"/>
<path d="M0 0 C0 0.66 0 1.32 0 2 C-1.55966218 2.508783 -3.12289241 3.00663469 -4.6875 3.5 C-5.99267578 3.91765625 -5.99267578 3.91765625 -7.32421875 4.34375 C-9.99391677 4.99850805 -12.26396684 5.11831495 -15 5 C-10.37795091 2.49639008 -5.30049345 0 0 0 Z " fill="#395E8E" transform="translate(266,267)"/>
<path d="M0 0 C7.66816143 -0.76681614 7.66816143 -0.76681614 10.93359375 1.11328125 C12.5625 2.5 12.5625 2.5 15 5 C14.34 5.66 13.68 6.32 13 7 C12.67 6.34 12.34 5.68 12 5 C9.98330173 3.86649466 9.98330173 3.86649466 8 3 C8 2.34 8 1.68 8 1 C5.36 1 2.72 1 0 1 C0 0.67 0 0.34 0 0 Z " fill="#214D7D" transform="translate(244,149)"/>
<path d="M0 0 C2.31 1.65 4.62 3.3 7 5 C5.02 5.99 5.02 5.99 3 7 C3 6.34 3 5.68 3 5 C1.68 4.67 0.36 4.34 -1 4 C-0.67 2.68 -0.34 1.36 0 0 Z " fill="#E2F0F7" transform="translate(185,129)"/>
<path d="M0 0 C0.99 0 1.98 0 3 0 C3 0.66 3 1.32 3 2 C3.66 2.33 4.32 2.66 5 3 C3.20991533 3.22151549 1.41781838 3.42682213 -0.375 3.625 C-1.37273437 3.74101562 -2.37046875 3.85703125 -3.3984375 3.9765625 C-4.25695312 3.98429688 -5.11546875 3.99203125 -6 4 C-6.66 3.34 -7.32 2.68 -8 2 C-6.865625 1.855625 -5.73125 1.71125 -4.5625 1.5625 C-1.19222799 1.38828522 -1.19222799 1.38828522 0 0 Z " fill="#386394" transform="translate(233,237)"/>
<path d="M0 0 C3.4375 0.25 3.4375 0.25 7 1 C7.66 1.99 8.32 2.98 9 4 C2.375 3.25 2.375 3.25 -1 1 C-0.67 0.67 -0.34 0.34 0 0 Z " fill="#DFEEF8" transform="translate(225,220)"/>
<path d="M0 0 C3.37462715 0.54723683 5.08235 1.0549 8 3 C7.67 4.32 7.34 5.64 7 7 C5.83040013 6.02433888 4.66438823 5.044375 3.5 4.0625 C2.8503125 3.51722656 2.200625 2.97195312 1.53125 2.41015625 C1.0259375 1.94480469 0.520625 1.47945312 0 1 C0 0.67 0 0.34 0 0 Z " fill="#D7E5F0" transform="translate(206,210)"/>
<path d="M0 0 C-1.70828921 2.10633718 -2.52148416 2.93801608 -5.26171875 3.29296875 C-6.06222656 3.25816406 -6.86273438 3.22335938 -7.6875 3.1875 C-8.49574219 3.16042969 -9.30398437 3.13335937 -10.13671875 3.10546875 C-10.75160156 3.07066406 -11.36648437 3.03585938 -12 3 C-3.11538462 -1.55769231 -3.11538462 -1.55769231 0 0 Z " fill="#3B6390" transform="translate(176,222)"/>
<path d="M0 0 C0 1.32 0 2.64 0 4 C-3.82097239 3.46930939 -6.06171403 2.50298434 -9 0 C-5.93109813 -1.53445094 -3.29905734 -0.54984289 0 0 Z " fill="#E2EFF7" transform="translate(224,217)"/>
<path d="M0 0 C2 3 2 3 2 5 C2.66 5 3.32 5 4 5 C3.67 5.99 3.34 6.98 3 8 C1.02 6.68 -0.96 5.36 -3 4 C-2.01 2.68 -1.02 1.36 0 0 Z " fill="#E6F0F7" transform="translate(118,210)"/>
<path d="M0 0 C0.66 0.33 1.32 0.66 2 1 C1.01 2.485 1.01 2.485 0 4 C-0.66158043 6.04584079 -0.66158043 6.04584079 -1.125 8.1875 C-1.41375 9.445625 -1.7025 10.70375 -2 12 C-2.33 12 -2.66 12 -3 12 C-3.08131463 10.56344146 -3.13933559 9.1255517 -3.1875 7.6875 C-3.22230469 6.88699219 -3.25710937 6.08648437 -3.29296875 5.26171875 C-2.93801608 2.52148416 -2.10633718 1.70828921 0 0 Z " fill="#D5E9F5" transform="translate(233,153)"/>
<path d="M0 0 C0.89203125 0.01804688 1.7840625 0.03609375 2.703125 0.0546875 C3.71632812 0.08949219 3.71632812 0.08949219 4.75 0.125 C4.75 0.455 4.75 0.785 4.75 1.125 C4.06292969 1.24617187 3.37585938 1.36734375 2.66796875 1.4921875 C1.76691406 1.65976563 0.86585938 1.82734375 -0.0625 2 C-0.95582031 2.16242188 -1.84914062 2.32484375 -2.76953125 2.4921875 C-5.47727846 3.03688449 -5.47727846 3.03688449 -8.25 5.125 C-8.58 4.135 -8.91 3.145 -9.25 2.125 C-6.03817851 0.21891902 -3.71117397 -0.09766247 0 0 Z " fill="#3F6895" transform="translate(247.25,147.875)"/>
<path d="M0 0 C4.95 1.98 4.95 1.98 10 4 C9.34 4.66 8.68 5.32 8 6 C5.69 5.34 3.38 4.68 1 4 C0.67 2.68 0.34 1.36 0 0 Z " fill="#2F598C" transform="translate(113,259)"/>
<path d="M0 0 C0 0.66 0 1.32 0 2 C-2.59482129 4.59482129 -4.39883625 4.69990302 -8 5 C-8.66 4.34 -9.32 3.68 -10 3 C-8.70990357 2.49596232 -7.41786211 1.99690074 -6.125 1.5 C-5.04605469 1.08234375 -5.04605469 1.08234375 -3.9453125 0.65625 C-2 0 -2 0 0 0 Z " fill="#D2E7F1" transform="translate(285,225)"/>
<path d="M0 0 C0.99 0.33 1.98 0.66 3 1 C2 4 2 4 1 6 C0.01 6 -0.98 6 -2 6 C-2.33 5.01 -2.66 4.02 -3 3 C-2.01 2.01 -1.02 1.02 0 0 Z " fill="#255489" transform="translate(194,208)"/>
<path d="M0 0 C0.66 0 1.32 0 2 0 C4.40240978 3.02525676 5.05541631 4.4125871 4.6875 8.3125 C4.460625 9.199375 4.23375 10.08625 4 11 C2.03698408 7.49461443 1.04097612 3.86648272 0 0 Z " fill="#335A84" transform="translate(296,148)"/>
<path d="M0 0 C0.66 0 1.32 0 2 0 C2.33 1.65 2.66 3.3 3 5 C2.01 5.495 2.01 5.495 1 6 C-1.625 5.0625 -1.625 5.0625 -4 4 C-3.34 3.525625 -2.68 3.05125 -2 2.5625 C-1.34 2.046875 -0.68 1.53125 0 1 C0 0.67 0 0.34 0 0 Z " fill="#2A5993" transform="translate(119,223)"/>
<path d="M0 0 C2.64 0.66 5.28 1.32 8 2 C8.33 3.65 8.66 5.3 9 7 C6.03 5.35 3.06 3.7 0 2 C0 1.34 0 0.68 0 0 Z " fill="#DDEFF4" transform="translate(248,145)"/>
<path d="M0 0 C-0.33 0.66 -0.66 1.32 -1 2 C-2.98 2 -4.96 2 -7 2 C-7.33 1.34 -7.66 0.68 -8 0 C-4.71023192 -1.09658936 -3.28696233 -0.79953138 0 0 Z " fill="#EAF1F2" transform="translate(258,236)"/>
<path d="M0 0 C2.9719385 1.12451727 5.33440687 2.22293791 8 4 C5.69 4 3.38 4 1 4 C0.67 2.68 0.34 1.36 0 0 Z " fill="#305A8C" transform="translate(119,217)"/>
<path d="M0 0 C1 3 1 3 0.0625 5.1875 C-0.4634375 6.0846875 -0.4634375 6.0846875 -1 7 C-2.65 6.67 -4.3 6.34 -6 6 C-4 4 -2 2 0 0 Z " fill="#D4E6F1" transform="translate(258,191)"/>
<path d="M0 0 C3.3 0.99 6.6 1.98 10 3 C8.02 3.99 8.02 3.99 6 5 C3.98079663 3.69593116 1.98075027 2.36176581 0 1 C0 0.67 0 0.34 0 0 Z " fill="#31598B" transform="translate(235,192)"/>
<path d="M0 0 C4.875 2.75 4.875 2.75 6 5 C5.34 5 4.68 5 4 5 C3.67 5.99 3.34 6.98 3 8 C2.67 7.34 2.34 6.68 2 6 C2.33 5.34 2.66 4.68 3 4 C2.34 4 1.68 4 1 4 C0.67 2.68 0.34 1.36 0 0 Z " fill="#295A8F" transform="translate(158,149)"/>
<path d="M0 0 C1.32 0 2.64 0 4 0 C4.33 1.32 4.66 2.64 5 4 C2.03 3.505 2.03 3.505 -1 3 C-0.67 2.01 -0.34 1.02 0 0 Z " fill="#F8FCEE" transform="translate(279,133)"/>
<path d="M0 0 C-0.33 0.99 -0.66 1.98 -1 3 C-1.66 3 -2.32 3 -3 3 C-3 3.66 -3 4.32 -3 5 C-4.65 4.67 -6.3 4.34 -8 4 C-2.7826087 0 -2.7826087 0 0 0 Z " fill="#345B90" transform="translate(185,217)"/>
<path d="M0 0 C2 3 2 3 1.625 6.1875 C1.41875 7.115625 1.2125 8.04375 1 9 C0.34 9 -0.32 9 -1 9 C-0.67 6.03 -0.34 3.06 0 0 Z " fill="#DDECF6" transform="translate(262,179)"/>
<path d="M0 0 C1 3 1 3 -0.4375 6.1875 C-1.2109375 7.5796875 -1.2109375 7.5796875 -2 9 C-2.33 9 -2.66 9 -3 9 C-3.36923077 3.46153846 -3.36923077 3.46153846 -1.5 1.125 C-1.005 0.75375 -0.51 0.3825 0 0 Z " fill="#184B86" transform="translate(140,158)"/>
<path d="M0 0 C1.98 0.99 1.98 0.99 4 2 C3.67 3.32 3.34 4.64 3 6 C2.34 6 1.68 6 1 6 C0.67 4.02 0.34 2.04 0 0 Z " fill="#224E83" transform="translate(162,154)"/>
<path d="M0 0 C2.475 0.495 2.475 0.495 5 1 C4.67 2.65 4.34 4.3 4 6 C2.62437146 4.71034824 1.29233607 3.37310707 0 2 C0 1.34 0 0.68 0 0 Z " fill="#355788" transform="translate(196,138)"/>
<path d="M0 0 C-1.98 1.32 -3.96 2.64 -6 4 C-6.33 2.68 -6.66 1.36 -7 0 C-3.86650268 -1.04449911 -3.01031744 -0.93423645 0 0 Z " fill="#2E5B89" transform="translate(121,128)"/>
</svg>
