<svg xmlns="http://www.w3.org/2000/svg" width="80" height="80" viewBox="0 0 25 25" shape-rendering="crispEdges"><path fill="#232f48" d="M0 0h25v25H0z"/><path stroke="#9ca3af" d="M0 0.5h7m2 0h2m2 0h1m2 0h1m1 0h7M0 1.5h1m5 0h1m2 0h3m3 0h1m2 0h1m5 0h1M0 2.5h1m1 0h3m1 0h1m1 0h5m1 0h3m1 0h1m1 0h3m1 0h1M0 3.5h1m1 0h3m1 0h1m1 0h2m1 0h1m1 0h2m3 0h1m1 0h3m1 0h1M0 4.5h1m1 0h3m1 0h1m1 0h1m2 0h3m2 0h1m1 0h1m1 0h3m1 0h1M0 5.5h1m5 0h1m1 0h4m1 0h3m2 0h1m5 0h1M0 6.5h7m1 0h1m1 0h1m1 0h1m1 0h1m1 0h1m1 0h7M8 7.5h1m2 0h2m2 0h2M0 8.5h1m1 0h5m2 0h7m2 0h5M2 9.5h2m4 0h1m3 0h2m2 0h2m1 0h1m3 0h1M0 10.5h1m2 0h1m2 0h3m2 0h1m1 0h1m1 0h7m1 0h2M7 11.5h1m1 0h1m1 0h1m2 0h1m1 0h2m1 0h1m4 0h1M0 12.5h1m1 0h1m3 0h1m1 0h1m3 0h2m3 0h4m1 0h3M0 13.5h2m6 0h1m4 0h1m2 0h2m1 0h1m1 0h1m1 0h1M0 14.5h1m3 0h3m1 0h14m1 0h2M0 15.5h1m2 0h3m2 0h1m2 0h1m4 0h2m1 0h2m3 0h1M0 16.5h1m1 0h1m1 0h3m2 0h1m1 0h1m1 0h2m1 0h5m1 0h1M8 17.5h2m2 0h1m2 0h2m3 0h2M0 18.5h7m2 0h2m5 0h1m1 0h1m1 0h1m1 0h3M0 19.5h1m5 0h1m1 0h2m2 0h1m1 0h1m1 0h1m3 0h2m1 0h1M0 20.5h1m1 0h3m1 0h1m1 0h1m3 0h9m1 0h3M0 21.5h1m1 0h3m1 0h1m1 0h1m4 0h1m2 0h1m1 0h1m1 0h5M0 22.5h1m1 0h3m1 0h1m1 0h1m1 0h3m8 0h2m1 0h1M0 23.5h1m5 0h1m2 0h3m2 0h4m1 0h3m2 0h1M0 24.5h7m1 0h2m1 0h2m6 0h6"/></svg>