<svg xmlns="http://www.w3.org/2000/svg" width="80" height="80" viewBox="0 0 29 29" shape-rendering="crispEdges"><path fill="#232f48" d="M0 0h29v29H0z"/><path stroke="#9ca3af" d="M2 2.5h7m2 0h2m2 0h1m2 0h1m1 0h7M2 3.5h1m5 0h1m2 0h3m3 0h1m2 0h1m5 0h1M2 4.5h1m1 0h3m1 0h1m1 0h5m1 0h3m1 0h1m1 0h3m1 0h1M2 5.5h1m1 0h3m1 0h1m1 0h2m1 0h1m1 0h2m3 0h1m1 0h3m1 0h1M2 6.5h1m1 0h3m1 0h1m1 0h1m2 0h3m2 0h1m1 0h1m1 0h3m1 0h1M2 7.5h1m5 0h1m1 0h4m1 0h3m2 0h1m5 0h1M2 8.5h7m1 0h1m1 0h1m1 0h1m1 0h1m1 0h1m1 0h7M10 9.5h1m2 0h2m2 0h2M2 10.5h1m1 0h5m2 0h7m2 0h5M4 11.5h2m4 0h1m3 0h2m2 0h2m1 0h1m3 0h1M2 12.5h1m2 0h1m2 0h3m2 0h1m1 0h1m1 0h7m1 0h2M9 13.5h1m1 0h1m1 0h1m2 0h1m1 0h2m1 0h1m4 0h1M2 14.5h1m1 0h1m3 0h1m1 0h1m3 0h2m3 0h4m1 0h3M2 15.5h2m6 0h1m4 0h1m2 0h2m1 0h1m1 0h1m1 0h1M2 16.5h1m3 0h3m1 0h14m1 0h2M2 17.5h1m2 0h3m2 0h1m2 0h1m4 0h2m1 0h2m3 0h1M2 18.5h1m1 0h1m1 0h3m2 0h1m1 0h1m1 0h2m1 0h5m1 0h1M10 19.5h2m2 0h1m2 0h2m3 0h2M2 20.5h7m2 0h2m5 0h1m1 0h1m1 0h1m1 0h3M2 21.5h1m5 0h1m1 0h2m2 0h1m1 0h1m1 0h1m3 0h2m1 0h1M2 22.5h1m1 0h3m1 0h1m1 0h1m3 0h9m1 0h3M2 23.5h1m1 0h3m1 0h1m1 0h1m4 0h1m2 0h1m1 0h1m1 0h5M2 24.5h1m1 0h3m1 0h1m1 0h1m1 0h3m8 0h2m1 0h1M2 25.5h1m5 0h1m2 0h3m2 0h4m1 0h3m2 0h1M2 26.5h7m1 0h2m1 0h2m6 0h6"/></svg>